<?xml version="1.0" encoding="utf-8"?>
<!-- Generator: Adobe Illustrator 24.0.2, SVG Export Plug-In . SVG Version: 6.00 Build 0)  -->
<svg version="1.1" baseProfile="tiny" id="Layer_1" xmlns="http://www.w3.org/2000/svg" xmlns:xlink="http://www.w3.org/1999/xlink"
	 x="0px" y="0px" viewBox="0 0 230.5 28" xml:space="preserve">
<g>
	<path fill="#22B573" d="M27.9,25.8L19,27l-1.1-4.1h-4.1L12.9,27l-9.2-0.9L10.8,2l10-0.5L27.9,25.8z M17.2,17.4l-1.4-6.3l-1.3,6.3
		H17.2z"/>
	<path fill="#22B573" d="M44.2,17.8l-0.8,8L28.2,27l0.6-25.8h9.4l-1.3,16.6H44.2z"/>
	<path fill="#22B573" d="M64.1,1.9L64,9.6l-5.4,0.2l-0.7,16.8l-7.6,0.4l-0.7-16.8l-5.4,0.3l0.2-8.5L64.1,1.9z"/>
	<path fill="#22B573" d="M85.3,12.8c0,1-0.1,2.1-0.2,3.1C83.1,16,81,16.3,79,16.6c-2,0.3-4.1,0.6-6.1,0.9c0.3,0.9,0.8,1.6,1.5,2.1
		c0.7,0.5,1.5,0.8,2.4,0.8c0.5,0,1-0.1,1.6-0.3c0.6-0.2,1.1-0.4,1.7-0.7c0.6-0.3,1.1-0.6,1.6-0.9c0.5-0.3,1-0.6,1.3-0.8l-0.9,8.2
		c-0.5,0.4-1,0.7-1.5,0.9c-0.5,0.3-1.1,0.5-1.7,0.6c-0.6,0.2-1.2,0.3-1.8,0.3c-0.6,0.1-1.2,0.1-1.8,0.1c-1.2,0-2.3-0.2-3.3-0.5
		c-1-0.3-1.9-0.8-2.7-1.4c-0.8-0.6-1.5-1.3-2.1-2.1c-0.6-0.8-1.1-1.7-1.5-2.6s-0.7-1.9-0.9-3c-0.2-1-0.3-2.1-0.3-3.2
		c0-1.1,0.1-2.2,0.3-3.4c0.2-1.1,0.5-2.2,0.9-3.2c0.4-1,0.9-2,1.6-2.9C68,4.8,68.7,4,69.6,3.3c0.8-0.7,1.8-1.2,2.9-1.6
		c1.1-0.4,2.2-0.6,3.5-0.6c1.1,0,2.1,0.1,2.9,0.4c0.9,0.3,1.7,0.7,2.4,1.2C82,3.4,82.6,4,83.1,4.7c0.5,0.7,0.9,1.5,1.3,2.4
		c0.3,0.9,0.6,1.8,0.7,2.7C85.2,10.8,85.3,11.8,85.3,12.8z M78.1,11.8c0-0.3,0-0.7-0.1-1c-0.1-0.4-0.2-0.7-0.4-1
		c-0.2-0.3-0.4-0.5-0.6-0.7c-0.3-0.2-0.6-0.3-1-0.3c-0.5,0-0.9,0.1-1.3,0.4c-0.4,0.3-0.7,0.6-0.9,1c-0.3,0.4-0.5,0.8-0.7,1.3
		c-0.2,0.5-0.3,0.9-0.4,1.3l5.3-0.5V11.8z"/>
	<path fill="#22B573" d="M107.7,9.9c0,0.9-0.1,1.8-0.2,2.6c-0.2,0.8-0.4,1.5-0.8,2.1c-0.3,0.6-0.8,1.2-1.4,1.8
		c-0.6,0.5-1.2,1.1-2,1.6l4.3,7.7l-8.1,1.6l-2.8-7.7l-2.2,0.1l-0.3,7.5h-7.8c0.1-2.7,0.1-5.5,0.2-8.2c0.1-2.7,0.1-5.5,0.2-8.2
		c0-1.4,0-2.8,0.1-4.1c0-1.4,0.1-2.7,0.1-4.1c0.8-0.3,1.7-0.6,2.5-0.8c0.8-0.2,1.6-0.4,2.5-0.5c0.8-0.1,1.7-0.2,2.5-0.2
		c0.8,0,1.7-0.1,2.6-0.1c1.4,0,2.7,0.2,4,0.6c1.3,0.4,2.4,0.9,3.4,1.7c1,0.8,1.8,1.7,2.4,2.8C107.4,7.1,107.7,8.4,107.7,9.9z
		 M99.6,10.5c0-0.5-0.1-1-0.2-1.4C99.2,8.7,99,8.4,98.8,8c-0.3-0.3-0.6-0.5-1-0.7c-0.4-0.2-0.9-0.3-1.4-0.3c-0.2,0-0.5,0-0.7,0
		c-0.2,0-0.5,0.1-0.7,0.1L94.7,14h0.4c0.5,0,1-0.1,1.6-0.2c0.5-0.1,1-0.3,1.4-0.6c0.4-0.3,0.8-0.6,1-1.1
		C99.5,11.6,99.6,11.1,99.6,10.5z"/>
	<path fill="#22B573" d="M131.3,18.2c0,1.4,0,2.7,0,4c0,1.3-0.1,2.7-0.1,4l-10.4-0.2c0.4-2.1,0.7-4.3,0.9-6.4
		c0.3-2.1,0.4-4.3,0.4-6.4c0-0.2,0-0.4,0-0.8c0-0.3,0-0.7-0.1-1.2c0-0.4-0.1-0.9-0.2-1.4c-0.1-0.5-0.2-0.9-0.3-1.3
		c-0.1-0.4-0.3-0.7-0.4-0.9c-0.2-0.2-0.4-0.4-0.6-0.4c-0.4,0-0.8,0.1-1,0.4c-0.3,0.2-0.5,0.6-0.7,0.9c-0.2,0.4-0.3,0.8-0.4,1.3
		s-0.2,0.9-0.2,1.4c-0.1,0.5-0.1,0.9-0.1,1.3c0,0.4,0,0.8,0,1c-0.1,2.1-0.1,4.2-0.1,6.4s-0.1,4.2-0.1,6.4l-9.2,0.4
		c0.2-4.3,0.5-8.5,0.7-12.7c0.2-4.2,0.4-8.4,0.5-12.7l8.5-0.4l-0.1,2.9c0.3-0.4,0.7-0.8,1.1-1.2c0.4-0.4,0.8-0.7,1.3-0.9
		c0.4-0.3,0.9-0.5,1.4-0.6c0.5-0.2,1-0.2,1.6-0.2c1,0,1.9,0.2,2.7,0.5c0.8,0.3,1.4,0.8,2,1.4c0.6,0.6,1,1.3,1.4,2.1
		c0.4,0.8,0.7,1.6,0.9,2.5c0.2,0.9,0.4,1.8,0.5,2.8c0.1,1,0.2,1.9,0.2,2.9c0,0.9,0.1,1.8,0.1,2.7C131.3,16.7,131.3,17.5,131.3,18.2z
		"/>
	<path fill="#22B573" d="M155.8,25.8l-9,1.2l-1.1-4.1h-4.1l-0.9,4.1l-9.2-0.9L138.7,2l10-0.5L155.8,25.8z M145.1,17.4l-1.4-6.3
		l-1.3,6.3H145.1z"/>
	<path fill="#22B573" d="M175.3,1.9l-0.2,7.7l-5.4,0.2l-0.7,16.8l-7.6,0.4l-0.7-16.8l-5.4,0.3l0.2-8.5L175.3,1.9z"/>
	<path fill="#22B573" d="M185.8,1.9l-1.3,24.6l-7.6,0.4l-0.7-24.5L185.8,1.9z"/>
	<path fill="#22B573" d="M209.4,2l-6.6,24.4l-9,0.5l-8.1-23.6l8.6-0.8l3.5,13.7l3.4-14.8L209.4,2z"/>
	<path fill="#22B573" d="M230.2,12.8c0,1-0.1,2.1-0.2,3.1c-2.1,0.1-4.1,0.3-6.1,0.6c-2,0.3-4.1,0.6-6.1,0.9c0.3,0.9,0.8,1.6,1.5,2.1
		c0.7,0.5,1.5,0.8,2.4,0.8c0.5,0,1-0.1,1.6-0.3c0.6-0.2,1.1-0.4,1.7-0.7c0.6-0.3,1.1-0.6,1.6-0.9c0.5-0.3,1-0.6,1.3-0.8l-0.9,8.2
		c-0.5,0.4-1,0.7-1.5,0.9c-0.5,0.3-1.1,0.5-1.7,0.6c-0.6,0.2-1.2,0.3-1.8,0.3c-0.6,0.1-1.2,0.1-1.8,0.1c-1.2,0-2.3-0.2-3.3-0.5
		c-1-0.3-1.9-0.8-2.7-1.4c-0.8-0.6-1.5-1.3-2.1-2.1c-0.6-0.8-1.1-1.7-1.5-2.6s-0.7-1.9-0.9-3s-0.3-2.1-0.3-3.2
		c0-1.1,0.1-2.2,0.3-3.4s0.5-2.2,0.9-3.2c0.4-1,0.9-2,1.6-2.9c0.6-0.9,1.4-1.7,2.2-2.3c0.8-0.7,1.8-1.2,2.9-1.6
		c1.1-0.4,2.2-0.6,3.5-0.6c1.1,0,2.1,0.1,2.9,0.4c0.9,0.3,1.7,0.7,2.4,1.2c0.7,0.5,1.3,1.1,1.8,1.9s0.9,1.5,1.3,2.4
		c0.3,0.9,0.6,1.8,0.7,2.7C230.1,10.8,230.2,11.8,230.2,12.8z M222.9,11.8c0-0.3,0-0.7-0.1-1c-0.1-0.4-0.2-0.7-0.4-1
		c-0.2-0.3-0.4-0.5-0.6-0.7c-0.3-0.2-0.6-0.3-1-0.3c-0.5,0-0.9,0.1-1.3,0.4c-0.4,0.3-0.7,0.6-0.9,1c-0.3,0.4-0.5,0.8-0.7,1.3
		c-0.2,0.5-0.3,0.9-0.4,1.3l5.3-0.5V11.8z"/>
</g>
</svg>
