<?xml version="1.0" encoding="utf-8"?>
<!-- Generator: Adobe Illustrator 24.0.2, SVG Export Plug-In . SVG Version: 6.00 Build 0)  -->
<svg version="1.1" baseProfile="tiny" id="Layer_1" xmlns="http://www.w3.org/2000/svg" xmlns:xlink="http://www.w3.org/1999/xlink"
	 x="0px" y="0px" viewBox="0 0 138.5 28" xml:space="preserve">
<g>
	<path fill="#F7931E" d="M23.7,23.3c-0.6,0.7-1.3,1.3-2.1,1.9c-0.8,0.5-1.7,1-2.7,1.3c-1,0.3-1.9,0.6-2.9,0.8c-1,0.2-2,0.3-2.9,0.3
		c-1.7,0-3.4-0.3-4.8-0.9c-1.5-0.6-2.7-1.4-3.8-2.5c-1.1-1.1-1.9-2.3-2.5-3.8c-0.6-1.5-0.9-3-0.9-4.8c0-1.3,0.2-2.6,0.5-3.8
		c0.3-1.2,0.7-2.4,1.3-3.5c0.6-1.1,1.2-2.1,2.1-3C5.7,4.5,6.6,3.7,7.6,3c1-0.7,2.1-1.2,3.4-1.5C12.2,1.2,13.5,1,14.9,1
		c0.5,0,1.1,0,1.7,0.1c0.6,0,1.2,0.1,1.8,0.2c0.6,0.1,1.2,0.2,1.7,0.4c0.6,0.2,1.1,0.4,1.5,0.7L21,9.3C20.4,9,19.7,8.8,19,8.7
		c-0.7-0.1-1.4-0.1-2.1-0.1c-1,0-1.9,0.1-2.7,0.4c-0.8,0.3-1.6,0.6-2.2,1.1c-0.6,0.5-1.1,1.1-1.5,1.9S10,13.7,10,14.7
		c0,0.6,0.1,1.2,0.3,1.8c0.2,0.6,0.4,1.1,0.8,1.6c0.3,0.5,0.8,0.8,1.3,1.1c0.5,0.3,1.1,0.4,1.8,0.4c0.5,0,0.9-0.1,1.4-0.2
		c0.5-0.1,0.9-0.3,1.3-0.6l0.1-1.4l-4.3-0.1l0.2-5.4c1.8-0.1,3.6-0.1,5.4-0.2c1.8,0,3.6-0.1,5.4-0.2L23.7,23.3z"/>
	<path fill="#F7931E" d="M46.2,9.9c0,0.9-0.1,1.8-0.2,2.6c-0.2,0.8-0.4,1.5-0.8,2.1c-0.3,0.6-0.8,1.2-1.4,1.8
		c-0.6,0.5-1.2,1.1-2,1.6l4.3,7.7L38,27.2l-2.8-7.7L33,19.6l-0.3,7.5h-7.8c0.1-2.7,0.1-5.5,0.2-8.2c0.1-2.7,0.1-5.5,0.2-8.2
		c0-1.4,0-2.8,0.1-4.1c0-1.4,0.1-2.7,0.1-4.1c0.8-0.3,1.7-0.6,2.5-0.8c0.8-0.2,1.6-0.4,2.5-0.5C31.3,1.1,32.1,1,33,0.9
		c0.8,0,1.7-0.1,2.6-0.1c1.4,0,2.7,0.2,4,0.6C40.8,1.8,42,2.4,43,3.2c1,0.8,1.8,1.7,2.4,2.8C45.9,7.1,46.2,8.4,46.2,9.9z M38.1,10.5
		c0-0.5-0.1-1-0.2-1.4c-0.1-0.4-0.3-0.8-0.6-1.1c-0.3-0.3-0.6-0.5-1-0.7c-0.4-0.2-0.9-0.3-1.4-0.3c-0.2,0-0.5,0-0.7,0
		c-0.2,0-0.5,0.1-0.7,0.1L33.2,14h0.4c0.5,0,1-0.1,1.6-0.2c0.5-0.1,1-0.3,1.4-0.6c0.4-0.3,0.8-0.6,1-1.1
		C38,11.6,38.1,11.1,38.1,10.5z"/>
	<path fill="#F7931E" d="M69,1.9c-0.5,4.2-1,8.5-1.4,12.7c-0.4,4.2-0.8,8.4-1.1,12.7l-7.4,0.5l0.3-2.8c-0.2,0.3-0.5,0.5-0.8,0.7
		s-0.7,0.4-1,0.5c-0.4,0.1-0.7,0.2-1.1,0.3c-0.4,0.1-0.8,0.1-1.1,0.1c-0.8,0-1.6-0.2-2.3-0.5c-0.7-0.3-1.4-0.7-2-1.2
		c-0.6-0.5-1.1-1.1-1.6-1.8c-0.5-0.7-0.9-1.4-1.2-2.1c-0.3-0.8-0.6-1.5-0.8-2.3c-0.2-0.8-0.3-1.5-0.3-2.3c0-1.1,0-2.2,0.1-3.4
		c0-1.2,0.1-2.3,0.2-3.5c0.1-1.2,0.2-2.3,0.4-3.5c0.2-1.1,0.4-2.2,0.7-3.3C50,2.8,51.5,2.9,53,2.9C54.5,3,55.9,3,57.4,3
		c-0.3,1-0.6,2.1-0.8,3.2c-0.3,1.1-0.5,2.1-0.7,3.2c-0.2,1.1-0.4,2.1-0.5,3.2c-0.1,1.1-0.2,2.2-0.2,3.3c0,0.3,0,0.6,0,1.1
		c0,0.5,0.1,0.9,0.2,1.4c0.1,0.5,0.3,0.9,0.5,1.2c0.2,0.3,0.5,0.5,0.9,0.5c0.5,0,0.9-0.2,1.2-0.6s0.7-0.9,1-1.6s0.5-1.4,0.7-2.3
		c0.2-0.9,0.4-1.8,0.5-2.7c0.1-0.9,0.3-1.9,0.3-2.9c0.1-1,0.1-1.9,0.2-2.7c0-0.8,0.1-1.6,0.1-2.3c0-0.7,0-1.2,0-1.6
		c0-0.2,0-0.5,0-0.7c0-0.2,0-0.5-0.1-0.7C61.5,2,62.3,2,63,2c0.8,0,1.5,0,2.3,0c0.6,0,1.2,0,1.8,0C67.8,2,68.4,2,69,1.9z"/>
	<path fill="#F7931E" d="M92.5,18.2c0,1.4,0,2.7,0,4c0,1.3-0.1,2.7-0.1,4l-10.4-0.2c0.4-2.1,0.7-4.3,0.9-6.4
		c0.3-2.1,0.4-4.3,0.4-6.4c0-0.2,0-0.4,0-0.8c0-0.3,0-0.7-0.1-1.2c0-0.4-0.1-0.9-0.2-1.4c-0.1-0.5-0.2-0.9-0.3-1.3
		c-0.1-0.4-0.3-0.7-0.4-0.9c-0.2-0.2-0.4-0.4-0.6-0.4c-0.4,0-0.8,0.1-1,0.4C80.4,8,80.2,8.3,80,8.7c-0.2,0.4-0.3,0.8-0.4,1.3
		c-0.1,0.5-0.2,0.9-0.2,1.4c-0.1,0.5-0.1,0.9-0.1,1.3c0,0.4,0,0.8,0,1c-0.1,2.1-0.1,4.2-0.1,6.4s-0.1,4.2-0.1,6.4l-9.2,0.4
		c0.2-4.3,0.5-8.5,0.7-12.7s0.4-8.4,0.5-12.7L79.4,1l-0.1,2.9c0.3-0.4,0.7-0.8,1.1-1.2s0.8-0.7,1.3-0.9c0.4-0.3,0.9-0.5,1.4-0.6
		c0.5-0.2,1-0.2,1.6-0.2c1,0,1.9,0.2,2.7,0.5c0.8,0.3,1.4,0.8,2,1.4c0.6,0.6,1,1.3,1.4,2.1c0.4,0.8,0.7,1.6,0.9,2.5
		c0.2,0.9,0.4,1.8,0.5,2.8c0.1,1,0.2,1.9,0.2,2.9s0.1,1.8,0.1,2.7C92.5,16.7,92.5,17.5,92.5,18.2z"/>
	<path fill="#F7931E" d="M116.1,23.3c-0.6,0.7-1.3,1.3-2.1,1.9c-0.8,0.5-1.7,1-2.7,1.3s-1.9,0.6-2.9,0.8c-1,0.2-2,0.3-2.9,0.3
		c-1.7,0-3.4-0.3-4.8-0.9c-1.5-0.6-2.7-1.4-3.8-2.5c-1.1-1.1-1.9-2.3-2.5-3.8s-0.9-3-0.9-4.8c0-1.3,0.2-2.6,0.5-3.8
		c0.3-1.2,0.7-2.4,1.3-3.5c0.6-1.1,1.2-2.1,2.1-3S99,3.7,100,3s2.1-1.2,3.4-1.5c1.2-0.4,2.5-0.5,3.9-0.5c0.5,0,1.1,0,1.7,0.1
		c0.6,0,1.2,0.1,1.8,0.2c0.6,0.1,1.2,0.2,1.7,0.4s1.1,0.4,1.5,0.7l-0.5,6.9c-0.7-0.3-1.4-0.4-2.1-0.5c-0.7-0.1-1.4-0.1-2.1-0.1
		c-1,0-1.9,0.1-2.7,0.4c-0.8,0.3-1.6,0.6-2.2,1.1c-0.6,0.5-1.1,1.1-1.5,1.9s-0.5,1.6-0.5,2.6c0,0.6,0.1,1.2,0.3,1.8s0.4,1.1,0.8,1.6
		c0.3,0.5,0.8,0.8,1.3,1.1c0.5,0.3,1.1,0.4,1.8,0.4c0.5,0,0.9-0.1,1.4-0.2c0.5-0.1,0.9-0.3,1.3-0.6l0.1-1.4l-4.3-0.1l0.2-5.4
		c1.8-0.1,3.6-0.1,5.4-0.2c1.8,0,3.6-0.1,5.4-0.2L116.1,23.3z"/>
	<path fill="#F7931E" d="M137.6,12.8c0,1-0.1,2.1-0.2,3.1c-2.1,0.1-4.1,0.3-6.1,0.6c-2,0.3-4.1,0.6-6.1,0.9c0.3,0.9,0.8,1.6,1.5,2.1
		c0.7,0.5,1.5,0.8,2.4,0.8c0.5,0,1-0.1,1.6-0.3c0.6-0.2,1.1-0.4,1.7-0.7c0.6-0.3,1.1-0.6,1.6-0.9c0.5-0.3,1-0.6,1.3-0.8l-0.9,8.2
		c-0.5,0.4-1,0.7-1.5,0.9c-0.5,0.3-1.1,0.5-1.7,0.6c-0.6,0.2-1.2,0.3-1.8,0.3c-0.6,0.1-1.2,0.1-1.8,0.1c-1.2,0-2.3-0.2-3.3-0.5
		c-1-0.3-1.9-0.8-2.7-1.4c-0.8-0.6-1.5-1.3-2.1-2.1c-0.6-0.8-1.1-1.7-1.5-2.6s-0.7-1.9-0.9-3s-0.3-2.1-0.3-3.2
		c0-1.1,0.1-2.2,0.3-3.4s0.5-2.2,0.9-3.2c0.4-1,0.9-2,1.6-2.9c0.6-0.9,1.4-1.7,2.2-2.3c0.8-0.7,1.8-1.2,2.9-1.6
		c1.1-0.4,2.2-0.6,3.5-0.6c1.1,0,2.1,0.1,2.9,0.4c0.9,0.3,1.7,0.7,2.4,1.2c0.7,0.5,1.3,1.1,1.8,1.9s0.9,1.5,1.3,2.4
		c0.3,0.9,0.6,1.8,0.7,2.7C137.5,10.8,137.6,11.8,137.6,12.8z M130.4,11.8c0-0.3,0-0.7-0.1-1c-0.1-0.4-0.2-0.7-0.4-1
		c-0.2-0.3-0.4-0.5-0.6-0.7c-0.3-0.2-0.6-0.3-1-0.3c-0.5,0-0.9,0.1-1.3,0.4c-0.4,0.3-0.7,0.6-0.9,1c-0.3,0.4-0.5,0.8-0.7,1.3
		c-0.2,0.5-0.3,0.9-0.4,1.3l5.3-0.5V11.8z"/>
</g>
</svg>
