<?xml version="1.0" encoding="utf-8"?>
<!-- Generator: Adobe Illustrator 24.0.2, SVG Export Plug-In . SVG Version: 6.00 Build 0)  -->
<svg version="1.1" baseProfile="tiny" id="Layer_1" xmlns="http://www.w3.org/2000/svg" xmlns:xlink="http://www.w3.org/1999/xlink"
	 x="0px" y="0px" viewBox="0 0 88.9 28" xml:space="preserve">
<g>
	<path fill="#8CC63F" d="M10,1.6L8.7,26.2l-7.6,0.4L0.4,2.1L10,1.6z"/>
	<path fill="#8CC63F" d="M33.9,17.9c0,1.4,0,2.7,0,4s-0.1,2.7-0.1,4l-10.4-0.2c0.4-2.1,0.7-4.3,0.9-6.4c0.3-2.1,0.4-4.3,0.4-6.4
		c0-0.2,0-0.4,0-0.8c0-0.3,0-0.7-0.1-1.2c0-0.4-0.1-0.9-0.2-1.4s-0.2-0.9-0.3-1.3C24,8,23.8,7.7,23.7,7.5c-0.2-0.2-0.4-0.4-0.6-0.4
		c-0.4,0-0.8,0.1-1,0.4c-0.3,0.2-0.5,0.6-0.7,0.9c-0.2,0.4-0.3,0.8-0.4,1.3s-0.2,0.9-0.2,1.4c-0.1,0.5-0.1,0.9-0.1,1.3
		c0,0.4,0,0.8,0,1c-0.1,2.1-0.1,4.2-0.1,6.4s-0.1,4.2-0.1,6.4L11,26.5c0.2-4.3,0.5-8.5,0.7-12.7s0.4-8.4,0.5-12.7l8.5-0.4l-0.1,2.9
		c0.3-0.4,0.7-0.8,1.1-1.2s0.8-0.7,1.3-0.9c0.4-0.3,0.9-0.5,1.4-0.6c0.5-0.2,1-0.2,1.6-0.2c1,0,1.9,0.2,2.7,0.5
		c0.8,0.3,1.4,0.8,2,1.4s1,1.3,1.4,2.1s0.7,1.6,0.9,2.5C33.2,8,33.4,9,33.5,9.9c0.1,1,0.2,1.9,0.2,2.9c0,0.9,0.1,1.8,0.1,2.7
		C33.9,16.4,33.9,17.2,33.9,17.9z"/>
	<path fill="#8CC63F" d="M56,12.7c0,1.7-0.2,3.2-0.7,4.5c-0.4,1.3-1,2.5-1.8,3.6c-0.8,1-1.7,1.9-2.8,2.6s-2.2,1.3-3.5,1.8
		s-2.6,0.8-4.1,1c-1.4,0.2-2.9,0.3-4.4,0.3c-0.6,0-1.1,0-1.7,0s-1.1-0.1-1.7-0.1l0.5-23.5C37.3,2.4,38.6,2.2,40,2s2.8-0.3,4.2-0.3
		c1.7,0,3.3,0.2,4.8,0.7c1.4,0.5,2.7,1.2,3.7,2.1s1.9,2.1,2.4,3.5C55.7,9.4,56,11,56,12.7z M43.7,19.7c0.7-0.1,1.4-0.3,2-0.7
		c0.6-0.3,1.1-0.7,1.5-1.2s0.8-1,1-1.7c0.2-0.6,0.4-1.3,0.4-2s-0.1-1.3-0.2-1.9c-0.1-0.6-0.4-1.1-0.7-1.6c-0.3-0.4-0.8-0.8-1.3-1
		c-0.5-0.3-1.2-0.4-2-0.4L43.7,19.7z"/>
	<path fill="#8CC63F" d="M66.6,1.6l-1.3,24.6l-7.6,0.4L57,2.1L66.6,1.6z"/>
	<path fill="#8CC63F" d="M88.2,12.5c0,1-0.1,2.1-0.2,3.1c-2.1,0.1-4.1,0.3-6.1,0.6c-2,0.3-4.1,0.6-6.1,0.9c0.3,0.9,0.8,1.6,1.5,2.1
		s1.5,0.8,2.4,0.8c0.5,0,1-0.1,1.6-0.3c0.6-0.2,1.1-0.4,1.7-0.7c0.6-0.3,1.1-0.6,1.6-0.9s1-0.6,1.3-0.8L85,25.5
		c-0.5,0.4-1,0.7-1.5,0.9c-0.5,0.3-1.1,0.5-1.7,0.6c-0.6,0.2-1.2,0.3-1.8,0.3c-0.6,0.1-1.2,0.1-1.8,0.1c-1.2,0-2.3-0.2-3.3-0.5
		s-1.9-0.8-2.7-1.4c-0.8-0.6-1.5-1.3-2.1-2.1c-0.6-0.8-1.1-1.7-1.5-2.6s-0.7-1.9-0.9-3c-0.2-1-0.3-2.1-0.3-3.2s0.1-2.2,0.3-3.4
		c0.2-1.1,0.5-2.2,0.9-3.2s0.9-2,1.6-2.9c0.6-0.9,1.4-1.7,2.2-2.3c0.8-0.7,1.8-1.2,2.9-1.6s2.2-0.6,3.5-0.6c1.1,0,2.1,0.1,2.9,0.4
		c0.9,0.3,1.7,0.7,2.4,1.2c0.7,0.5,1.3,1.1,1.8,1.9c0.5,0.7,0.9,1.5,1.3,2.4c0.3,0.9,0.6,1.8,0.7,2.7C88.1,10.5,88.2,11.5,88.2,12.5
		z M81,11.5c0-0.3,0-0.7-0.1-1c-0.1-0.4-0.2-0.7-0.4-1c-0.2-0.3-0.4-0.5-0.6-0.7c-0.3-0.2-0.6-0.3-1-0.3c-0.5,0-0.9,0.1-1.3,0.4
		c-0.4,0.3-0.7,0.6-0.9,1c-0.3,0.4-0.5,0.8-0.7,1.3s-0.3,0.9-0.4,1.3l5.3-0.5L81,11.5L81,11.5z"/>
</g>
</svg>
