<?xml version="1.0" encoding="utf-8"?>
<!-- Generator: Adobe Illustrator 24.0.2, SVG Export Plug-In . SVG Version: 6.00 Build 0)  -->
<svg version="1.1" baseProfile="tiny" id="Layer_1" xmlns="http://www.w3.org/2000/svg" xmlns:xlink="http://www.w3.org/1999/xlink"
	 x="0px" y="0px" viewBox="0 0 302 28" xml:space="preserve">
<g>
	<path fill="#FFFFFF" d="M21.2,10.4c0,0.9-0.1,1.7-0.2,2.4c-0.2,0.7-0.4,1.4-0.7,2C20,15.4,19.5,16,19,16.5c-0.5,0.5-1.2,1-1.9,1.5
		l4.1,7.3l-7.7,1.5l-2.6-7.3l-2.1,0.1l-0.3,7.1H1c0.1-2.6,0.1-5.2,0.2-7.8s0.1-5.2,0.2-7.8c0-1.3,0-2.6,0.1-3.9
		c0-1.3,0.1-2.6,0.1-3.9C2.3,3,3.1,2.7,3.9,2.5S5.5,2.2,6.2,2C7,2,7.8,1.9,8.6,1.8c0.8,0,1.6-0.1,2.5-0.1c1.3,0,2.6,0.2,3.8,0.5
		s2.3,0.9,3.2,1.6s1.7,1.6,2.3,2.7C20.9,7.7,21.2,8.9,21.2,10.4z M13.5,10.9c0-0.5-0.1-0.9-0.2-1.3c-0.1-0.4-0.3-0.7-0.6-1
		s-0.6-0.5-1-0.7c-0.4-0.2-0.8-0.2-1.3-0.2c-0.2,0-0.5,0-0.7,0S9.3,7.8,9.1,7.8l-0.3,6.4h0.4c0.5,0,1-0.1,1.5-0.2
		c0.5-0.1,1-0.3,1.4-0.6s0.7-0.6,1-1S13.5,11.5,13.5,10.9z"/>
	<path fill="#FFFFFF" d="M43.6,13.8c0,1-0.1,2-0.4,3c-0.2,1-0.6,1.9-1,2.7c-0.5,0.8-1,1.6-1.6,2.3c-0.6,0.7-1.4,1.3-2.2,1.8
		s-1.7,0.9-2.6,1.2c-0.9,0.3-2,0.4-3,0.4s-2-0.1-2.9-0.4s-1.8-0.6-2.6-1.1c-0.8-0.5-1.5-1-2.2-1.7s-1.2-1.4-1.7-2.2
		c-0.5-0.8-0.8-1.7-1.1-2.6c-0.3-0.9-0.4-1.9-0.4-2.9s0.1-2,0.4-2.9c0.2-1,0.6-1.9,1-2.7c0.5-0.8,1-1.6,1.6-2.3s1.4-1.3,2.1-1.8
		c0.8-0.5,1.7-0.9,2.6-1.2S31.5,3,32.5,3c1.7,0,3.2,0.3,4.5,0.8C38.4,4.3,39.5,5,40.5,6s1.7,2.1,2.2,3.5S43.6,12.1,43.6,13.8z
		 M35.9,14.2c0-0.5-0.1-1-0.2-1.4c-0.1-0.5-0.4-0.9-0.6-1.2s-0.6-0.7-1-0.9s-0.9-0.3-1.4-0.3s-1,0.1-1.4,0.3s-0.8,0.5-1.1,0.8
		c-0.3,0.3-0.5,0.7-0.7,1.2s-0.2,0.9-0.2,1.4s0.1,1,0.2,1.4c0.1,0.5,0.3,0.9,0.6,1.3c0.3,0.4,0.6,0.7,1,0.9c0.4,0.2,0.9,0.4,1.4,0.4
		s1-0.1,1.4-0.3c0.4-0.2,0.8-0.5,1.1-0.9s0.5-0.8,0.7-1.2C35.9,15.2,35.9,14.7,35.9,14.2z"/>
	<path fill="#FFFFFF" d="M61.1,3.5l-0.6,7.2c-0.3-0.1-0.7-0.2-1-0.2s-0.6-0.1-1-0.1c-0.8,0-1.6,0.1-2.3,0.3s-1.4,0.5-2,0.9
		s-1,1-1.4,1.6c-0.3,0.6-0.5,1.4-0.5,2.3c0,0.6,0.1,1.2,0.3,1.7s0.5,0.9,0.8,1.2c0.3,0.3,0.8,0.6,1.3,0.7c0.5,0.2,1,0.2,1.7,0.2
		c0.4,0,0.9,0,1.3-0.1c0.4-0.1,0.9-0.2,1.3-0.4c0.4-0.1,0.9-0.3,1.3-0.5c0.4-0.2,0.8-0.4,1.1-0.6l-0.3,8c-0.4,0.2-0.9,0.4-1.4,0.6
		s-1,0.3-1.6,0.5S57,27,56.5,27.1c-0.5,0.1-1.1,0.1-1.5,0.1c-1.6,0-3.1-0.3-4.4-0.9c-1.3-0.6-2.5-1.4-3.4-2.5c-1-1-1.7-2.3-2.2-3.6
		c-0.5-1.4-0.8-2.9-0.8-4.4c0-1.9,0.3-3.6,0.8-5.2s1.3-3,2.3-4.2s2.3-2.1,3.8-2.8s3.3-1,5.2-1c0.8,0,1.6,0.1,2.4,0.2
		C59.6,2.9,60.3,3.2,61.1,3.5z"/>
	<path fill="#FFFFFF" d="M83.8,4.8l-7.6,9l7,11.8l-8,1.4L70,19.9l-0.3,6.7l-7.1,0.3l0.5-24.5l8,0.4l-0.6,7.1l5-7.2L83.8,4.8z"/>
	<path fill="#FFFFFF" d="M91.6,5.3c0,0.5-0.1,1.1-0.4,1.8c-0.2,0.7-0.5,1.3-1,1.9s-0.9,1.2-1.5,1.8s-1.2,1-1.9,1.4c0,0,0-0.1,0-0.4
		c0-0.3,0-0.6,0-0.9c0-0.4,0-0.8-0.1-1.2c0-0.4,0-0.8-0.1-1.1C86,8.3,85.4,7.8,85,7.2s-0.6-1.3-0.6-2c0-0.5,0.1-1,0.3-1.4
		c0.2-0.4,0.4-0.8,0.8-1.1c0.3-0.3,0.7-0.6,1.1-0.8C87,1.7,87.5,1.6,88,1.6s1,0.1,1.4,0.3s0.8,0.5,1.1,0.8c0.3,0.3,0.6,0.7,0.8,1.1
		C91.5,4.2,91.6,4.7,91.6,5.3C91.6,5.2,91.6,5.3,91.6,5.3z"/>
	<path fill="#FFFFFF" d="M110.2,18.1c0,1.6-0.3,2.9-0.8,4s-1.3,2.1-2.2,2.8c-0.9,0.7-2,1.3-3.3,1.6c-1.3,0.3-2.6,0.5-4.1,0.5
		c-0.6,0-1.2-0.1-1.8-0.2c-0.7-0.1-1.3-0.3-2-0.6c-0.7-0.2-1.3-0.5-2-0.7s-1.2-0.5-1.7-0.7l0.8-6.7c1,0.6,2,1,3.2,1.3
		s2.3,0.5,3.5,0.5c0.2,0,0.5,0,0.8,0s0.6-0.1,0.9-0.2s0.5-0.2,0.7-0.4c0.2-0.2,0.3-0.4,0.3-0.7c0-0.2-0.1-0.4-0.2-0.6
		s-0.3-0.3-0.5-0.4s-0.5-0.2-0.7-0.2c-0.3-0.1-0.5-0.1-0.8-0.1s-0.5,0-0.7,0s-0.4,0-0.5,0c-1,0-1.9-0.2-2.7-0.5s-1.5-0.7-2.1-1.3
		c-0.6-0.6-1-1.2-1.3-2.1c-0.3-0.8-0.5-1.7-0.5-2.7c0-1.3,0.3-2.6,0.8-3.6c0.5-1.1,1.3-2,2.2-2.7c0.9-0.7,1.9-1.3,3.1-1.7
		s2.4-0.6,3.6-0.6c0.6,0,1.1,0,1.7,0.1c0.6,0,1.2,0.1,1.8,0.2c0.6,0.1,1.2,0.2,1.7,0.4c0.6,0.2,1.1,0.4,1.6,0.6l-0.7,7
		c-0.8-0.3-1.6-0.5-2.4-0.7c-0.9-0.2-1.7-0.3-2.5-0.3c-0.1,0-0.3,0-0.6,0c-0.2,0-0.5,0-0.7,0.1c-0.3,0-0.5,0.1-0.8,0.1
		c-0.3,0.1-0.5,0.1-0.7,0.2c-0.2,0.1-0.4,0.2-0.5,0.4s-0.2,0.3-0.2,0.6s0.1,0.4,0.3,0.6c0.2,0.1,0.4,0.2,0.7,0.3
		c0.3,0.1,0.6,0.1,0.9,0.1s0.7,0,1,0s0.6,0,0.9-0.1c0.3,0,0.5,0,0.7,0c0.9,0.1,1.7,0.3,2.5,0.6c0.7,0.3,1.4,0.8,1.9,1.3
		s0.9,1.2,1.2,2C110.1,16.4,110.2,17.2,110.2,18.1z"/>
	<path fill="#FFFFFF" d="M139.1,2.9L132.9,26l-8.5,0.5l-7.7-22.4l8.1-0.8l3.3,13l3.2-14L139.1,2.9z"/>
	<path fill="#FFFFFF" d="M148.6,2.8l-1.2,23.3l-7.2,0.4l-0.7-23.2L148.6,2.8z"/>
	<path fill="#FFFFFF" d="M171.3,18.2c0,1.3,0,2.6,0,3.8c0,1.3-0.1,2.5-0.1,3.8l-9.9-0.2c0.3-2,0.6-4,0.9-6.1c0.3-2,0.4-4,0.4-6.1
		c0-0.1,0-0.4,0-0.7s0-0.7-0.1-1.1c0-0.4-0.1-0.8-0.1-1.3c-0.1-0.4-0.1-0.8-0.3-1.2c-0.1-0.4-0.2-0.7-0.4-0.9
		c-0.2-0.2-0.3-0.4-0.6-0.4c-0.4,0-0.7,0.1-1,0.3c-0.3,0.2-0.5,0.5-0.7,0.9s-0.3,0.8-0.4,1.2c-0.1,0.4-0.2,0.9-0.2,1.3
		c-0.1,0.4-0.1,0.9-0.1,1.3c0,0.4,0,0.7,0,1c-0.1,2-0.1,4-0.1,6s-0.1,4-0.1,6l-8.7,0.4c0.2-4,0.4-8,0.7-12c0.2-4,0.4-8,0.5-12
		l8.1-0.4L159,4.5c0.3-0.4,0.7-0.8,1-1.1c0.4-0.3,0.8-0.6,1.2-0.9c0.4-0.2,0.9-0.4,1.3-0.6c0.5-0.1,1-0.2,1.5-0.2
		c1,0,1.8,0.2,2.6,0.5c0.7,0.3,1.4,0.8,1.9,1.3s1,1.2,1.3,1.9c0.4,0.7,0.6,1.5,0.9,2.4c0.2,0.8,0.4,1.7,0.5,2.6s0.2,1.8,0.2,2.7
		s0.1,1.8,0.1,2.6C171.3,16.8,171.3,17.5,171.3,18.2z"/>
	<path fill="#FFFFFF" d="M193.3,3.7l-8,13.2l0.2,9.7h-8.8l0.2-9.6l-6.3-12.7l8.7-1.1l2.7,7.4l3-7.4L193.3,3.7z"/>
	<path fill="#FFFFFF" d="M208.4,17.8l-0.7,7.6l-14.4,1.1L193.8,2h8.9l-1.3,15.7L208.4,17.8L208.4,17.8z"/>
	<path fill="#FFFFFF" d="M236.1,10.4c0,0.9-0.1,1.7-0.2,2.4c-0.2,0.7-0.4,1.4-0.7,2s-0.8,1.2-1.3,1.7c-0.5,0.5-1.2,1-1.9,1.5
		l4.1,7.3l-7.7,1.5l-2.6-7.3l-2.1,0.1l-0.3,7.1H216c0.1-2.6,0.1-5.2,0.2-7.8c0.1-2.6,0.1-5.2,0.2-7.8c0-1.3,0-2.6,0.1-3.9
		c0-1.3,0.1-2.6,0.1-3.9c0.8-0.3,1.6-0.5,2.4-0.7c0.8-0.2,1.6-0.3,2.3-0.5c0.8-0.1,1.6-0.2,2.4-0.2c0.8,0,1.6-0.1,2.5-0.1
		c1.3,0,2.6,0.2,3.8,0.5s2.3,0.9,3.2,1.6s1.7,1.6,2.3,2.7C235.8,7.7,236.1,8.9,236.1,10.4z M228.4,10.9c0-0.5-0.1-0.9-0.2-1.3
		c-0.1-0.4-0.3-0.7-0.6-1s-0.6-0.5-1-0.7c-0.4-0.2-0.8-0.2-1.3-0.2c-0.2,0-0.5,0-0.7,0s-0.4,0.1-0.6,0.1l-0.3,6.4h0.4
		c0.5,0,1-0.1,1.5-0.2c0.5-0.1,1-0.3,1.4-0.6s0.7-0.6,1-1C228.3,12,228.4,11.5,228.4,10.9z"/>
	<path fill="#FFFFFF" d="M258.5,13.8c0,1-0.1,2-0.4,3c-0.2,1-0.6,1.9-1,2.7c-0.5,0.8-1,1.6-1.6,2.3c-0.6,0.7-1.4,1.3-2.2,1.8
		s-1.7,0.9-2.6,1.2c-0.9,0.3-2,0.4-3,0.4s-2-0.1-2.9-0.4s-1.8-0.6-2.6-1.1s-1.5-1-2.2-1.7s-1.2-1.4-1.7-2.2
		c-0.5-0.8-0.8-1.7-1.1-2.6s-0.4-1.9-0.4-2.9s0.1-2,0.4-2.9c0.2-1,0.6-1.9,1-2.7c0.5-0.8,1-1.6,1.6-2.3s1.4-1.3,2.1-1.8
		s1.7-0.9,2.6-1.2c0.9-0.3,1.9-0.4,2.9-0.4c1.7,0,3.2,0.3,4.5,0.8s2.5,1.2,3.5,2.2c1,1,1.7,2.1,2.2,3.5
		C258.2,10.6,258.5,12.1,258.5,13.8z M250.9,14.2c0-0.5-0.1-1-0.2-1.4s-0.4-0.9-0.6-1.2c-0.3-0.4-0.6-0.7-1-0.9s-0.9-0.3-1.4-0.3
		s-1,0.1-1.4,0.3s-0.8,0.5-1.1,0.8s-0.5,0.7-0.7,1.2s-0.2,0.9-0.2,1.4s0.1,1,0.2,1.4c0.1,0.5,0.3,0.9,0.6,1.3s0.6,0.7,1,0.9
		c0.4,0.2,0.9,0.4,1.4,0.4s1-0.1,1.4-0.3c0.4-0.2,0.8-0.5,1.1-0.9s0.5-0.8,0.7-1.2C250.8,15.2,250.9,14.7,250.9,14.2z"/>
	<path fill="#FFFFFF" d="M280.2,25.4l-8.5,1.1l-1-3.9h-3.9l-0.9,3.9l-8.7-0.9L264,2.8l9.5-0.5L280.2,25.4z M270.1,17.4l-1.3-6
		l-1.3,6H270.1z"/>
	<path fill="#FFFFFF" d="M300,13.3c0,1.6-0.2,3-0.6,4.3s-1,2.4-1.7,3.4s-1.6,1.8-2.6,2.5s-2.1,1.2-3.3,1.7c-1.2,0.4-2.5,0.8-3.9,1
		s-2.8,0.3-4.2,0.3c-0.5,0-1.1,0-1.6,0s-1-0.1-1.6-0.1L281,3.9c1.3-0.4,2.5-0.7,3.9-0.8c1.3-0.2,2.7-0.2,4-0.2
		c1.6,0,3.1,0.2,4.5,0.7s2.6,1.1,3.5,2c1,0.9,1.8,2,2.3,3.3C299.7,10.1,300,11.6,300,13.3z M288.4,19.9c0.7-0.1,1.3-0.3,1.9-0.6
		c0.6-0.3,1.1-0.7,1.5-1.2s0.7-1,1-1.6c0.2-0.6,0.3-1.2,0.3-1.9s-0.1-1.3-0.2-1.8c-0.1-0.6-0.4-1.1-0.7-1.5c-0.3-0.4-0.7-0.7-1.2-1
		c-0.5-0.2-1.1-0.4-1.8-0.4L288.4,19.9z"/>
</g>
</svg>
