<?xml version="1.0" encoding="utf-8"?>
<!-- Generator: Adobe Illustrator 24.0.2, SVG Export Plug-In . SVG Version: 6.00 Build 0)  -->
<svg version="1.1" baseProfile="tiny" id="Layer_1" xmlns="http://www.w3.org/2000/svg" xmlns:xlink="http://www.w3.org/1999/xlink"
	 x="0px" y="0px" viewBox="0 0 116.9 28" xml:space="preserve">
<g>
	<path fill="#FFFF00" d="M33.3,14.3c0,1.7-0.1,3.4-0.2,5.1c-0.1,1.7-0.2,3.4-0.4,5.1l-9.3,0.4c0.3-2.1,0.5-4.2,0.7-6.3
		c0.2-2.1,0.3-4.2,0.3-6.3c0-0.1,0-0.4,0-0.7c0-0.3,0-0.7-0.1-1.1c0-0.4-0.1-0.9-0.1-1.3c-0.1-0.5-0.1-0.9-0.2-1.2
		c-0.1-0.4-0.2-0.7-0.3-0.9c-0.1-0.2-0.3-0.4-0.5-0.4c-0.4,0-0.8,0.2-1,0.5C22,7.6,21.9,8,21.8,8.4c-0.1,0.4-0.2,0.9-0.2,1.4
		c0,0.5,0,0.8,0,1.1c0,0.5,0,1,0,1.5c0,0.5,0,1,0,1.6c0,1.9,0,3.7-0.1,5.6c-0.1,1.9-0.2,3.7-0.3,5.6l-8.6,0.3
		c0.3-2.1,0.5-4.2,0.7-6.3c0.2-2.1,0.3-4.2,0.3-6.3c0-0.1,0-0.4,0-0.7c0-0.3,0-0.7-0.1-1.2c0-0.4-0.1-0.9-0.1-1.4
		c-0.1-0.5-0.1-0.9-0.2-1.3c-0.1-0.4-0.2-0.7-0.3-1C12.7,7.1,12.5,7,12.3,7c-0.3,0-0.6,0.1-0.8,0.4c-0.2,0.2-0.4,0.5-0.5,0.9
		c-0.1,0.4-0.2,0.8-0.3,1.2c-0.1,0.5-0.1,0.9-0.1,1.3c0,0.4,0,0.8-0.1,1.2c0,0.4,0,0.6,0,0.8l-0.4,13.2H1.1c0.2-2,0.4-4.1,0.6-6.1
		c0.2-2,0.4-4.1,0.5-6.1c0.2-2,0.3-4.1,0.4-6.1c0.1-2,0.1-4.1,0.1-6.1l8.6-0.4l0,2.1c0.3-0.3,0.6-0.7,0.9-1c0.3-0.3,0.7-0.7,1.1-0.9
		C13.6,1,14,0.8,14.4,0.7c0.4-0.2,0.9-0.3,1.3-0.3c0.6,0,1.1,0,1.6,0.1c0.5,0.1,0.9,0.2,1.3,0.5c0.4,0.2,0.7,0.5,1,0.9
		c0.3,0.4,0.5,0.9,0.8,1.4c0.4-0.4,0.8-0.8,1.2-1.2c0.4-0.4,0.8-0.7,1.2-0.9c0.4-0.3,0.9-0.5,1.4-0.6s1.1-0.2,1.7-0.2
		c1.2,0,2.2,0.2,3,0.7c0.8,0.5,1.5,1.1,2.1,1.8c0.5,0.7,1,1.6,1.3,2.6c0.3,1,0.5,2,0.7,3c0.2,1,0.3,2.1,0.3,3.1
		C33.2,12.6,33.3,13.5,33.3,14.3z"/>
	<path fill="#FFFF00" d="M55.1,12c0,1-0.1,2.1-0.2,3.1c-2.1,0.1-4.1,0.3-6.1,0.6c-2,0.3-4.1,0.6-6.1,0.9c0.3,0.9,0.8,1.6,1.5,2.1
		c0.7,0.5,1.5,0.8,2.4,0.8c0.5,0,1-0.1,1.6-0.3c0.6-0.2,1.1-0.4,1.7-0.7c0.6-0.3,1.1-0.6,1.6-0.9c0.5-0.3,1-0.6,1.3-0.8L51.8,25
		c-0.5,0.4-1,0.7-1.5,0.9c-0.5,0.3-1.1,0.5-1.7,0.6c-0.6,0.2-1.2,0.3-1.8,0.3C46.2,27,45.6,27,45,27c-1.2,0-2.3-0.2-3.3-0.5
		c-1-0.3-1.9-0.8-2.7-1.4c-0.8-0.6-1.5-1.3-2.1-2.1c-0.6-0.8-1.1-1.7-1.5-2.6s-0.7-1.9-0.9-3c-0.2-1-0.3-2.1-0.3-3.2
		c0-1.1,0.1-2.2,0.3-3.4c0.2-1.1,0.5-2.2,0.9-3.2c0.4-1,0.9-2,1.6-2.9c0.6-0.9,1.4-1.7,2.2-2.3c0.8-0.7,1.8-1.2,2.9-1.6
		c1.1-0.4,2.2-0.6,3.5-0.6c1.1,0,2.1,0.1,2.9,0.4c0.9,0.3,1.7,0.7,2.4,1.2c0.7,0.5,1.3,1.1,1.8,1.9c0.5,0.7,0.9,1.5,1.3,2.4
		c0.3,0.9,0.6,1.8,0.7,2.7C55,10,55.1,11,55.1,12z M47.8,11.1c0-0.3,0-0.7-0.1-1c-0.1-0.4-0.2-0.7-0.4-1c-0.2-0.3-0.4-0.5-0.6-0.7
		c-0.3-0.2-0.6-0.3-1-0.3c-0.5,0-0.9,0.1-1.3,0.4c-0.4,0.3-0.7,0.6-0.9,1c-0.3,0.4-0.5,0.8-0.7,1.3c-0.2,0.5-0.3,0.9-0.4,1.3
		l5.3-0.5V11.1z"/>
	<path fill="#FFFF00" d="M75.4,1.1l-0.2,7.7L69.8,9l-0.7,16.8l-7.6,0.4L60.8,9.4l-5.4,0.3l0.2-8.5L75.4,1.1z"/>
	<path fill="#FFFF00" d="M99.2,25l-9,1.2l-1.1-4.1H85l-0.9,4.1l-9.2-0.9l7.2-24.1l10-0.5L99.2,25z M88.5,16.6l-1.4-6.3l-1.3,6.3
		H88.5z"/>
	<path fill="#FFFF00" d="M115.4,17l-0.8,8l-15.2,1.2L100,0.4h9.4L108.1,17H115.4z"/>
</g>
</svg>
