<?xml version="1.0" encoding="utf-8"?>
<!-- Generator: Adobe Illustrator 24.0.2, SVG Export Plug-In . SVG Version: 6.00 Build 0)  -->
<svg version="1.1" baseProfile="tiny" id="Layer_1" xmlns="http://www.w3.org/2000/svg" xmlns:xlink="http://www.w3.org/1999/xlink"
	 x="0px" y="0px" viewBox="0 0 51.3 59.2" xml:space="preserve">
<path fill="#181818" d="M48.9,4.4v36.9l0,0v0.1c0.1,3.5-2,6.7-5.2,7.9c-6.3,2.3-12.1-2.7-11.4-8.8c0.5-4.1,4-7.3,8.1-7.3
	c1.2,0,2.3,0.2,3.3,0.6V23.4c0-2.3-2.2-3.9-4.3-3.2l-18.2,5.9c-1.4,0.4-2.3,1.7-2.3,3.2v20.5l0,0v0.1c0.1,3.5-2,6.7-5.2,7.9
	C7.4,60.1,1.6,55.1,2.3,49c0.5-4.1,4-7.3,8.1-7.3c1.2,0,2.3,0.2,3.3,0.6V14.6c0-1.5,0.9-2.9,2.4-3.4L44.1,1
	C46.4,0.1,48.9,1.9,48.9,4.4z"/>
</svg>
