<?xml version="1.0" encoding="utf-8"?>
<!-- Generator: Adobe Illustrator 24.0.2, SVG Export Plug-In . SVG Version: 6.00 Build 0)  -->
<svg version="1.1" baseProfile="tiny" id="Layer_1" xmlns="http://www.w3.org/2000/svg" xmlns:xlink="http://www.w3.org/1999/xlink"
	 x="0px" y="0px" viewBox="0 0 209.4 28" xml:space="preserve">
<g>
	<path fill="#29ABE2" d="M22.7,9.8c0,0.9-0.1,1.8-0.2,2.6c-0.2,0.8-0.4,1.5-0.8,2.1c-0.3,0.6-0.8,1.2-1.4,1.8
		c-0.6,0.5-1.2,1.1-2,1.6l4.3,7.7l-8.1,1.6l-2.8-7.7l-2.2,0.1l-0.3,7.5H1.4c0.1-2.7,0.1-5.5,0.2-8.2c0.1-2.7,0.1-5.4,0.2-8.2
		c0-1.4,0-2.8,0.1-4.1s0.1-2.7,0.1-4.1C2.8,2,3.6,1.8,4.4,1.6s1.6-0.4,2.5-0.5s1.7-0.2,2.5-0.2c0.8,0,1.7-0.1,2.6-0.1
		c1.4,0,2.7,0.2,4,0.6s2.4,0.9,3.4,1.7s1.8,1.7,2.4,2.8C22.4,7,22.7,8.3,22.7,9.8z M14.6,10.4c0-0.5-0.1-1-0.2-1.4
		c-0.1-0.4-0.3-0.8-0.6-1.1c-0.3-0.3-0.6-0.5-1-0.7C12.3,7,11.9,7,11.3,7c-0.2,0-0.5,0-0.7,0c-0.2,0-0.5,0.1-0.7,0.1l-0.3,6.7h0.4
		c0.5,0,1-0.1,1.6-0.2c0.5-0.1,1-0.3,1.4-0.6c0.4-0.3,0.8-0.6,1-1.1C14.4,11.5,14.6,11,14.6,10.4z"/>
	<path fill="#29ABE2" d="M46.2,13.4c0,1.1-0.1,2.2-0.4,3.2c-0.3,1-0.6,2-1.1,2.9c-0.5,0.9-1.1,1.7-1.7,2.4c-0.7,0.7-1.4,1.4-2.3,1.9
		c-0.8,0.5-1.8,0.9-2.8,1.2c-1,0.3-2.1,0.4-3.2,0.4c-1.1,0-2.1-0.1-3.1-0.4s-1.9-0.7-2.8-1.2c-0.9-0.5-1.6-1.1-2.3-1.8
		c-0.7-0.7-1.3-1.5-1.8-2.3C24.3,18.9,24,18,23.7,17c-0.3-1-0.4-2-0.4-3.1c0-1,0.1-2.1,0.4-3.1s0.6-2,1.1-2.8c0.5-0.9,1-1.7,1.7-2.5
		c0.7-0.7,1.4-1.4,2.3-1.9c0.8-0.5,1.7-1,2.7-1.3c1-0.3,2-0.5,3.1-0.5c1.7,0,3.3,0.3,4.8,0.8C40.8,3.2,42,4,43,5s1.8,2.2,2.4,3.6
		S46.2,11.7,46.2,13.4z M38.2,13.9c0-0.5-0.1-1-0.2-1.5c-0.2-0.5-0.4-0.9-0.7-1.3c-0.3-0.4-0.6-0.7-1.1-0.9
		c-0.4-0.2-0.9-0.4-1.5-0.4c-0.6,0-1.1,0.1-1.5,0.3c-0.4,0.2-0.8,0.5-1.1,0.8c-0.3,0.4-0.6,0.8-0.7,1.2c-0.2,0.5-0.3,1-0.3,1.5
		c0,0.5,0.1,1,0.2,1.5c0.1,0.5,0.4,1,0.6,1.4s0.6,0.7,1.1,1S34,18,34.6,18s1.1-0.1,1.5-0.3s0.8-0.5,1.1-0.9s0.6-0.8,0.7-1.3
		C38.1,14.9,38.2,14.4,38.2,13.9z"/>
	<path fill="#29ABE2" d="M64.7,2.6L64,10.2c-0.3-0.1-0.7-0.2-1-0.2c-0.3,0-0.7-0.1-1-0.1c-0.9,0-1.7,0.1-2.4,0.3s-1.5,0.5-2.1,1
		c-0.6,0.4-1.1,1-1.4,1.7c-0.4,0.7-0.5,1.5-0.5,2.4c0,0.7,0.1,1.3,0.3,1.8c0.2,0.5,0.5,0.9,0.8,1.2c0.4,0.3,0.8,0.6,1.3,0.7
		s1.1,0.3,1.7,0.3c0.4,0,0.9,0,1.4-0.1s0.9-0.2,1.4-0.4c0.5-0.2,0.9-0.3,1.4-0.5c0.4-0.2,0.8-0.4,1.2-0.6l-0.3,8.5
		c-0.5,0.2-1,0.5-1.5,0.6c-0.5,0.2-1.1,0.3-1.7,0.5c-0.6,0.1-1.1,0.2-1.7,0.3s-1.1,0.1-1.6,0.1c-1.7,0-3.3-0.3-4.7-1
		c-1.4-0.6-2.6-1.5-3.6-2.6s-1.8-2.4-2.3-3.8c-0.6-1.5-0.8-3-0.8-4.7c0-2,0.3-3.8,0.8-5.5s1.4-3.2,2.5-4.4s2.4-2.2,4-3
		c1.6-0.7,3.5-1.1,5.5-1.1c0.8,0,1.7,0.1,2.5,0.2C63.1,2,63.9,2.2,64.7,2.6z"/>
	<path fill="#29ABE2" d="M88.6,3.9l-8,9.5L88,25.8l-8.4,1.5l-5.5-7.4l-0.3,7.1l-7.5,0.3l0.6-25.8l8.4,0.5l-0.6,7.4l5.2-7.5L88.6,3.9
		z"/>
	<path fill="#29ABE2" d="M95.5,4.5c0,0.6-0.1,1.2-0.4,1.9c-0.2,0.7-0.6,1.4-1,2s-1,1.3-1.6,1.9c-0.6,0.6-1.3,1.1-2,1.5
		c0,0,0-0.2,0-0.4c0-0.3,0-0.6,0-1c0-0.4,0-0.8-0.1-1.3s0-0.8-0.1-1.2c-0.7-0.3-1.3-0.7-1.8-1.4S88,5.1,88,4.4c0-0.5,0.1-1,0.3-1.5
		c0.2-0.5,0.5-0.9,0.8-1.2c0.3-0.3,0.7-0.6,1.2-0.8s1-0.3,1.5-0.3c0.5,0,1,0.1,1.5,0.3c0.5,0.2,0.9,0.5,1.2,0.8
		C94.8,2,95,2.4,95.2,2.9s0.3,0.9,0.3,1.5V4.5z"/>
	<path fill="#29ABE2" d="M119,18.1c0,1.4,0,2.7,0,4c0,1.3-0.1,2.7-0.1,4L108.5,26c0.4-2.1,0.7-4.3,0.9-6.4s0.4-4.3,0.4-6.4
		c0-0.2,0-0.4,0-0.8c0-0.3,0-0.7-0.1-1.2c0-0.4-0.1-0.9-0.2-1.4c-0.1-0.5-0.2-0.9-0.3-1.3c-0.1-0.4-0.3-0.7-0.4-0.9
		c-0.2-0.2-0.4-0.4-0.6-0.4c-0.4,0-0.8,0.1-1,0.4c-0.3,0.2-0.5,0.6-0.7,0.9c-0.2,0.4-0.3,0.8-0.4,1.3s-0.2,0.9-0.2,1.4
		c-0.1,0.5-0.1,0.9-0.1,1.3c0,0.4,0,0.8,0,1c-0.1,2.1-0.1,4.2-0.1,6.3s-0.1,4.2-0.1,6.4l-9.2,0.4c0.2-4.2,0.5-8.5,0.7-12.7
		c0.2-4.2,0.4-8.4,0.5-12.7l8.5-0.4l-0.1,2.9c0.3-0.4,0.7-0.8,1.1-1.2c0.4-0.4,0.8-0.7,1.3-0.9s0.9-0.5,1.4-0.6
		c0.5-0.2,1-0.2,1.6-0.2c1,0,1.9,0.2,2.7,0.5s1.4,0.8,2,1.4s1,1.3,1.4,2c0.4,0.8,0.7,1.6,0.9,2.5s0.4,1.8,0.5,2.8s0.2,1.9,0.2,2.9
		c0,0.9,0.1,1.8,0.1,2.7C119,16.6,119,17.4,119,18.1z"/>
	<path fill="#29ABE2" d="M127.6,4.5c0,0.6-0.1,1.2-0.4,1.9c-0.2,0.7-0.6,1.4-1,2s-1,1.3-1.6,1.9c-0.6,0.6-1.3,1.1-2,1.5
		c0,0,0-0.2,0-0.4c0-0.3,0-0.6,0-1c0-0.4,0-0.8-0.1-1.3s0-0.8-0.1-1.2c-0.7-0.3-1.3-0.7-1.8-1.4S120,5.1,120,4.4
		c0-0.5,0.1-1,0.3-1.5c0.2-0.5,0.5-0.9,0.8-1.2c0.3-0.3,0.7-0.6,1.2-0.8s1-0.3,1.5-0.3c0.5,0,1,0.1,1.5,0.3c0.5,0.2,0.9,0.5,1.2,0.8
		c0.3,0.3,0.6,0.7,0.8,1.2s0.3,0.9,0.3,1.5V4.5z"/>
	<path fill="#29ABE2" d="M149.8,9.8c0,0.9-0.1,1.8-0.2,2.6c-0.2,0.8-0.4,1.5-0.8,2.1c-0.3,0.6-0.8,1.2-1.4,1.8
		c-0.6,0.5-1.2,1.1-2,1.6l4.3,7.7l-8.1,1.6l-2.8-7.7l-2.2,0.1l-0.3,7.5h-7.8c0.1-2.7,0.1-5.5,0.2-8.2c0.1-2.7,0.1-5.4,0.2-8.2
		c0-1.4,0-2.8,0.1-4.1s0.1-2.7,0.1-4.1c0.8-0.3,1.7-0.6,2.5-0.8s1.6-0.4,2.5-0.5s1.7-0.2,2.5-0.2s1.7-0.1,2.6-0.1
		c1.4,0,2.7,0.2,4,0.6s2.4,0.9,3.4,1.7s1.8,1.7,2.4,2.8C149.5,7,149.8,8.3,149.8,9.8z M141.7,10.4c0-0.5-0.1-1-0.2-1.4
		c-0.1-0.4-0.3-0.8-0.6-1.1c-0.3-0.3-0.6-0.5-1-0.7C139.5,7,139,7,138.5,7c-0.2,0-0.5,0-0.7,0c-0.2,0-0.5,0.1-0.7,0.1l-0.3,6.7h0.4
		c0.5,0,1-0.1,1.6-0.2c0.5-0.1,1-0.3,1.4-0.6c0.4-0.3,0.8-0.6,1-1.1C141.6,11.5,141.7,11,141.7,10.4z"/>
	<path fill="#29ABE2" d="M173.4,13.4c0,1.1-0.1,2.2-0.4,3.2c-0.3,1-0.6,2-1.1,2.9c-0.5,0.9-1.1,1.7-1.7,2.4
		c-0.7,0.7-1.4,1.4-2.3,1.9c-0.8,0.5-1.8,0.9-2.8,1.2s-2.1,0.4-3.2,0.4c-1.1,0-2.1-0.1-3.1-0.4s-1.9-0.7-2.8-1.2
		c-0.9-0.5-1.6-1.1-2.3-1.8c-0.7-0.7-1.3-1.5-1.8-2.3c-0.5-0.9-0.9-1.8-1.1-2.8c-0.3-1-0.4-2-0.4-3.1c0-1,0.1-2.1,0.4-3.1
		c0.3-1,0.6-2,1.1-2.8c0.5-0.9,1-1.7,1.7-2.5s1.4-1.4,2.3-1.9c0.8-0.5,1.7-1,2.7-1.3c1-0.3,2-0.5,3.1-0.5c1.7,0,3.3,0.3,4.8,0.8
		c1.4,0.5,2.7,1.3,3.7,2.3s1.8,2.2,2.4,3.6S173.4,11.7,173.4,13.4z M165.4,13.9c0-0.5-0.1-1-0.2-1.5c-0.2-0.5-0.4-0.9-0.7-1.3
		c-0.3-0.4-0.6-0.7-1.1-0.9c-0.4-0.2-0.9-0.4-1.5-0.4c-0.6,0-1.1,0.1-1.5,0.3c-0.4,0.2-0.8,0.5-1.1,0.8s-0.6,0.8-0.7,1.2
		s-0.3,1-0.3,1.5c0,0.5,0.1,1,0.2,1.5s0.4,1,0.6,1.4s0.6,0.7,1.1,1c0.4,0.3,0.9,0.4,1.5,0.4c0.6,0,1.1-0.1,1.5-0.3
		c0.5-0.2,0.8-0.5,1.1-0.9s0.6-0.8,0.7-1.3C165.3,14.9,165.4,14.4,165.4,13.9z"/>
	<path fill="#29ABE2" d="M190.5,17.7l-0.8,8l-15.2,1.2l0.6-25.8h9.4l-1.3,16.6H190.5z"/>
	<path fill="#29ABE2" d="M207.1,17.7l-0.8,8l-15.2,1.2l0.6-25.8h9.4l-1.3,16.6H207.1z"/>
</g>
</svg>
