<?xml version="1.0" encoding="utf-8"?>
<!-- Generator: Adobe Illustrator 24.0.2, SVG Export Plug-In . SVG Version: 6.00 Build 0)  -->
<svg version="1.1" baseProfile="tiny" id="Layer_1" xmlns="http://www.w3.org/2000/svg" xmlns:xlink="http://www.w3.org/1999/xlink"
	 x="0px" y="0px" viewBox="0 0 93.2 28" xml:space="preserve">
<g>
	<path fill="#FF00FF" d="M22.5,10.7c0,1.2-0.2,2.2-0.5,3.1c-0.3,0.9-0.8,1.7-1.4,2.4c-0.6,0.7-1.3,1.3-2.1,1.7
		c-0.8,0.5-1.7,0.8-2.6,1.1c-0.9,0.3-1.9,0.5-2.9,0.7c-1,0.1-2,0.2-2.9,0.2v7.7H1.5c0-1.4,0-2.7,0-4c0-1.3,0-2.6,0-3.9
		c0-1.3,0-2.6,0-3.9c0-1.3,0-2.6,0-4c0-1.5,0-2.9,0-4.4c0-1.5,0-3,0.1-4.4c1.5-0.5,3.1-0.8,4.6-1c1.5-0.2,3.1-0.3,4.8-0.3
		c0.9,0,1.9,0.1,2.8,0.2c0.9,0.2,1.8,0.4,2.7,0.7c0.8,0.3,1.6,0.7,2.4,1.2c0.7,0.5,1.4,1.1,1.9,1.7C21.3,6.2,21.7,7,22,7.8
		C22.4,8.7,22.5,9.6,22.5,10.7z M14.5,11.3c0-0.8-0.2-1.4-0.7-1.8c-0.5-0.4-1.1-0.7-1.9-0.7c-0.3,0-0.5,0-0.8,0.1
		c-0.3,0-0.5,0.1-0.8,0.2l-0.2,5.3c0.2,0,0.3,0,0.5,0c0.2,0,0.3,0,0.5,0c0.4,0,0.9-0.1,1.3-0.2c0.4-0.1,0.8-0.4,1.1-0.6
		c0.3-0.3,0.6-0.6,0.7-1C14.4,12.2,14.5,11.8,14.5,11.3z"/>
	<path fill="#FF00FF" d="M45.1,1.9c-0.5,4.2-1,8.5-1.4,12.7c-0.4,4.2-0.8,8.4-1.1,12.7l-7.4,0.5l0.3-2.8c-0.2,0.3-0.5,0.5-0.8,0.7
		c-0.3,0.2-0.7,0.4-1,0.5c-0.4,0.1-0.7,0.2-1.1,0.3c-0.4,0.1-0.8,0.1-1.1,0.1c-0.8,0-1.6-0.2-2.3-0.5c-0.7-0.3-1.4-0.7-2-1.2
		c-0.6-0.5-1.1-1.1-1.6-1.8c-0.5-0.7-0.9-1.4-1.2-2.1c-0.3-0.8-0.6-1.5-0.8-2.3c-0.2-0.8-0.3-1.5-0.3-2.3c0-1.1,0-2.2,0.1-3.4
		c0-1.2,0.1-2.3,0.2-3.5C23.6,8.3,23.8,7.2,24,6c0.2-1.1,0.4-2.2,0.7-3.3c1.5,0.1,2.9,0.1,4.4,0.2C30.5,3,32,3,33.5,3
		c-0.3,1-0.6,2.1-0.8,3.2c-0.3,1.1-0.5,2.1-0.7,3.2c-0.2,1.1-0.4,2.1-0.5,3.2c-0.1,1.1-0.2,2.2-0.2,3.3c0,0.3,0,0.6,0,1.1
		c0,0.5,0.1,0.9,0.2,1.4c0.1,0.5,0.3,0.9,0.5,1.2c0.2,0.3,0.5,0.5,0.9,0.5c0.5,0,0.9-0.2,1.2-0.6s0.7-0.9,1-1.6
		c0.3-0.7,0.5-1.4,0.7-2.3c0.2-0.9,0.4-1.8,0.5-2.7c0.1-0.9,0.2-1.9,0.3-2.9c0.1-1,0.1-1.9,0.2-2.7c0-0.8,0.1-1.6,0.1-2.3
		c0-0.7,0-1.2,0-1.6c0-0.2,0-0.5,0-0.7c0-0.2,0-0.5-0.1-0.7c0.8,0,1.6,0,2.3,0.1c0.8,0,1.5,0,2.3,0c0.6,0,1.2,0,1.8,0
		C43.8,2,44.5,2,45.1,1.9z"/>
	<path fill="#FF00FF" d="M68.6,18.2c0,1.4,0,2.7,0,4c0,1.3-0.1,2.7-0.1,4L58,26.1c0.4-2.1,0.7-4.3,0.9-6.4c0.3-2.1,0.4-4.3,0.4-6.4
		c0-0.2,0-0.4,0-0.8c0-0.3,0-0.7-0.1-1.2c0-0.4-0.1-0.9-0.2-1.4c-0.1-0.5-0.2-0.9-0.3-1.3c-0.1-0.4-0.3-0.7-0.4-0.9
		c-0.2-0.2-0.4-0.4-0.6-0.4c-0.4,0-0.8,0.1-1,0.4c-0.3,0.2-0.5,0.6-0.7,0.9c-0.2,0.4-0.3,0.8-0.4,1.3s-0.2,0.9-0.2,1.4
		c-0.1,0.5-0.1,0.9-0.1,1.3c0,0.4,0,0.8,0,1c-0.1,2.1-0.1,4.2-0.1,6.4S55,24.3,55,26.4l-9.2,0.4c0.2-4.3,0.5-8.5,0.7-12.7
		c0.2-4.2,0.4-8.4,0.5-12.7L55.5,1l-0.1,2.9c0.3-0.4,0.7-0.8,1.1-1.2c0.4-0.4,0.8-0.7,1.3-0.9c0.4-0.3,0.9-0.5,1.4-0.6
		c0.5-0.2,1-0.2,1.6-0.2c1,0,1.9,0.2,2.7,0.5c0.8,0.3,1.4,0.8,2,1.4c0.6,0.6,1,1.3,1.4,2.1c0.4,0.8,0.7,1.6,0.9,2.5
		c0.2,0.9,0.4,1.8,0.5,2.8c0.1,1,0.2,1.9,0.2,2.9c0,0.9,0.1,1.8,0.1,2.7C68.6,16.7,68.6,17.5,68.6,18.2z"/>
	<path fill="#FF00FF" d="M92.5,4l-8,9.5L91.8,26l-8.4,1.5L78,20l-0.3,7.1l-7.5,0.3l0.6-25.9L79.1,2l-0.7,7.4l5.2-7.6L92.5,4z"/>
</g>
</svg>
