<?xml version="1.0" encoding="utf-8"?>
<!-- Generator: Adobe Illustrator 24.0.2, SVG Export Plug-In . SVG Version: 6.00 Build 0)  -->
<svg version="1.1" id="Layer_1" xmlns="http://www.w3.org/2000/svg" xmlns:xlink="http://www.w3.org/1999/xlink" x="0px" y="0px"
	 viewBox="0 0 800 800" style="enable-background:new 0 0 800 800;" xml:space="preserve">
<style type="text/css">
	.st0{fill:#505050;}
	.st1{fill:none;stroke:#393939;stroke-width:1.5;stroke-miterlimit:10;}
</style>
<g id="records">
	<circle cx="400.4" cy="400.7" r="396.9"/>
	<g id="white">
		<path class="st0" d="M401.6,558.3h-0.8l0.2-17.8h0.3h0.2v9.2L401.6,558.3L401.6,558.3z M401.4,550L401.4,550v-0.5V550z
			 M404.3,558.3l-0.3-17.8h0.6l0.5,17.8H404.3z M398.1,558.3h-0.8l0.5-17.8h0.6L398.1,558.3z M407.6,558.3l-0.8-17.8h0.6l0.8,17.8
			H407.6z M394.7,558.1h-0.8l0.8-17.8h0.6L394.7,558.1z M410.9,558.1l-1.1-17.8h0.6l1.3,17.8H410.9z M391.4,558h-0.6l1.3-17.8h0.6
			L391.4,558z M414.3,557.8l-1.6-17.8h0.6l1.6,17.8H414.3z M388.1,557.8h-0.8l1.6-17.8h0.6L388.1,557.8z M417.6,557.5l-1.7-17.6h0.6
			l1.7,17.6H417.6z M384.7,557.5h-0.8l1.9-17.8h0.6L384.7,557.5z M420.9,557.2l-2.1-17.6h0.6l2.2,17.6H420.9z M381.2,557.2l-0.6-0.2
			l2.2-17.6l0.6,0.2L381.2,557.2z M424.3,556.9l-2.5-17.6l0.6-0.2l2.5,17.6L424.3,556.9z M378,556.7l-0.8-0.2l2.7-17.6l0.6,0.2
			L378,556.7z M427.6,556.2l-2.9-17.5l0.6-0.2l3,17.5L427.6,556.2z M374.7,556.2l-0.6-0.2l3-17.5l0.6,0.2L374.7,556.2z M430.9,555.6
			l-3.3-17.5l0.6-0.2l3.5,17.5L430.9,555.6z M371.4,555.6l-0.6-0.2l3.5-17.5l0.6,0.2L371.4,555.6z M434.1,555l-3.7-17.5l0.6-0.2
			l3.8,17.3L434.1,555z M368,554.8l-0.6-0.2l3.8-17.3l0.6,0.2L368,554.8z M437.5,554.2l-4.1-17.3l0.6-0.2l4.1,17.3L437.5,554.2z
			 M364.7,554l-0.6-0.2l4.1-17.3l0.6,0.2L364.7,554z M440.8,553.5l-4.4-17.2l0.6-0.2l4.6,17.2L440.8,553.5z M361.4,553.4l-0.6-0.2
			l4.6-17.2l0.6,0.2L361.4,553.4z M444.1,552.6l-4.9-17.2l0.6-0.2l4.9,17L444.1,552.6z M358.2,552.4l-0.6-0.2l4.9-17l0.6,0.2
			L358.2,552.4z M447.3,551.6l-5.2-17l0.6-0.2l5.2,17L447.3,551.6z M355,551.5l-0.6-0.2l5.4-17l0.6,0.2L355,551.5z M450.5,550.5
			l-5.4-16.8l0.6-0.2l5.6,16.8L450.5,550.5z M351.7,550.3l-0.6-0.2l5.7-16.8l0.6,0.2L351.7,550.3z M453.7,549.6l-5.9-16.7l0.6-0.2
			l5.9,16.7L453.7,549.6z M348.7,549.4l-0.6-0.3l6-16.7l0.6,0.2L348.7,549.4z M456.8,548.3l-6.2-16.7l0.6-0.2l6.4,16.5L456.8,548.3z
			 M345.3,548.1l-0.6-0.3l6.4-16.5l0.6,0.2L345.3,548.1z M460,547l-6.7-16.4l0.6-0.3l6.7,16.4L460,547z M342.3,546.9l-0.6-0.3
			l6.7-16.4l0.6,0.2L342.3,546.9z M463,545.9l-7-16.4l0.6-0.3l7,16.4L463,545.9z M339.1,545.6l-0.6-0.3l7-16.4l0.6,0.3L339.1,545.6z
			 M466.1,544.5l-7.3-16.4l0.5-0.3l7.5,16.2L466.1,544.5z M335.9,544.3l-0.6-0.3l7.5-16.2l0.5,0.3L335.9,544.3z M469.2,543
			l-7.6-16.2l0.5-0.3l7.8,16L469.2,543z M332.9,542.9l-0.6-0.3l7.8-16l0.5,0.3L332.9,542.9z M472.3,541.6l-8.1-15.9l0.6-0.3
			l8.1,15.9L472.3,541.6z M329.9,541.3l-0.6-0.3l8.1-15.9l0.6,0.3L329.9,541.3z M475.3,540l-8.4-15.7l0.6-0.3l8.4,15.7L475.3,540z
			 M326.9,539.7l-0.6-0.3l8.6-15.7l0.5,0.3L326.9,539.7z M478.1,538.4l-8.7-15.6l0.5-0.3l8.9,15.6L478.1,538.4z M324,538.1l-0.6-0.3
			l8.9-15.6l0.5,0.3L324,538.1z M481,536.7l-9.1-15.4l0.5-0.3l9.1,15.4L481,536.7z M321,536.4l-0.6-0.3l9.1-15.3l0.5,0.3L321,536.4z
			 M484,535.1l-9.2-15.3l0.5-0.3l9.4,15.1L484,535.1z M318.2,534.8l-0.6-0.3l9.4-15.1l0.5,0.3L318.2,534.8z M486.9,533.2l-9.5-14.9
			l0.5-0.3l9.7,14.9L486.9,533.2z M315.3,532.9l-0.6-0.3l9.7-14.9l0.5,0.3L315.3,532.9z M489.6,531.4l-9.8-14.8l0.5-0.3l10,14.8
			L489.6,531.4z M312.6,531l-0.6-0.5l10-14.6l0.5,0.3L312.6,531z M492.3,529.4l-10.2-14.6l0.5-0.3l10.3,14.5L492.3,529.4z
			 M309.9,529.1l-0.6-0.5l10.3-14.5l0.5,0.3L309.9,529.1z M495.1,527.6l-10.5-14.3l0.5-0.3l10.6,14.3L495.1,527.6z M307,527.2
			l-0.6-0.5l10.6-14.1l0.5,0.3L307,527.2z M497.8,525.4l-11-14.1l0.5-0.3l11,14L497.8,525.4z M304.3,524.9l-0.6-0.5l11.1-14l0.5,0.3
			L304.3,524.9z M500.4,523.3l-11.3-13.8l0.5-0.3l11.3,13.8L500.4,523.3z M301.8,522.9l-0.6-0.5l11.3-13.7l0.5,0.3L301.8,522.9z
			 M503.1,521.1l-11.6-13.5l0.5-0.5l11.6,13.5L503.1,521.1z M299.2,520.8l-0.5-0.5l11.6-13.5l0.5,0.5L299.2,520.8z M505.6,519.1
			l-11.8-13.3l0.5-0.5l11.9,13.3L505.6,519.1z M296.5,518.6l-0.5-0.5l11.9-13.2l0.5,0.5L296.5,518.6z M508.2,516.8l-12.1-13l0.5-0.5
			l12.2,13L508.2,516.8z M294.2,516.4l-0.5-0.5l12.2-12.9l0.5,0.5L294.2,516.4z M510.5,514.4l-12.4-12.9l0.5-0.5l12.6,12.7
			L510.5,514.4z M291.6,513.8l-0.5-0.5l12.6-12.7l0.5,0.5L291.6,513.8z M513.1,512.1l-12.7-12.7l0.5-0.5l12.7,12.6L513.1,512.1z
			 M289.2,511.6l-0.5-0.5l12.7-12.6l0.5,0.5L289.2,511.6z M515.3,509.8l-12.7-12.6l0.3-0.3l12.9,12.2L515.3,509.8z M286.9,509.2
			l-0.5-0.5l12.9-12.2l0.5,0.5L286.9,509.2z M517.5,507.1l-13-12.1l0.5-0.5l13,12.1L517.5,507.1z M284.6,506.7l-0.5-0.6l13.2-11.9
			l0.3,0.5L284.6,506.7z M519.9,504.8L506.6,493l0.3-0.5l13.3,11.8L519.9,504.8z M282.4,504.1l-0.5-0.5l13.5-11.6l0.5,0.5
			L282.4,504.1z M522,502.2l-13.5-11.6l0.3-0.5l13.7,11.4L522,502.2z M280.2,501.6l-0.5-0.5l13.7-11.3l0.3,0.5L280.2,501.6z
			 M524,499.5l-13.8-11.3l0.3-0.5l13.8,11.1L524,499.5z M278,499l-0.5-0.6l14-11l0.3,0.5L278,499z M526.3,497l-14.1-11l0.3-0.5
			l14.1,10.8L526.3,497z M276.1,496.3l-0.5-0.6l14.1-10.8l0.3,0.5L276.1,496.3z M528.3,494.3L514,483.6l0.3-0.5l14.3,10.5
			L528.3,494.3z M273.8,493.6l-0.5-0.6l14.5-10.3l0.3,0.5L273.8,493.6z M530.2,491.6l-14.5-10.3l0.3-0.5l14.6,10.2L530.2,491.6z
			 M272.1,490.9l-0.3-0.6l14.6-10.2l0.3,0.5L272.1,490.9z M532.1,488.7l-14.8-10l0.3-0.5l14.8,9.8L532.1,488.7z M270.2,488.2
			l-0.3-0.6l14.9-9.7l0.3,0.5L270.2,488.2z M534.1,485.8l-14.9-9.7l0.3-0.5l15.1,9.5L534.1,485.8z M268.3,485.2l-0.3-0.6l15.1-9.4
			l0.3,0.5L268.3,485.2z M535.8,483.1l-15.3-9.2l0.3-0.5l15.3,9.2L535.8,483.1z M266.5,482.5l-0.3-0.6l15.3-9.1l0.3,0.5L266.5,482.5
			z M537.5,480.3l-15.4-9.1l0.3-0.5l15.4,9.1L537.5,480.3z M264.8,479.7l-0.3-0.6l15.6-8.9l0.3,0.5L264.8,479.7z M539.3,477.3
			l-15.6-8.7l0.3-0.5l15.7,8.6L539.3,477.3z M263,476.6l-0.3-0.6l15.7-8.6l0.3,0.5L263,476.6z M540.9,474.3l-15.7-8.4l0.3-0.5
			l15.9,8.3L540.9,474.3z M261.6,473.8l-0.3-0.6l15.9-8.3l0.3,0.5L261.6,473.8z M542.3,471.2l-16-7.9l0.3-0.6l16,7.9L542.3,471.2z
			 M260,470.6l-0.3-0.6l16-7.8l0.3,0.5L260,470.6z M543.9,468.2l-16.2-7.6l0.3-0.5l16.2,7.6L543.9,468.2z M258.6,467.7l-0.3-0.6
			l16.2-7.5l0.3,0.5L258.6,467.7z M545.3,465.2l-16.4-7.3l0.3-0.6l16.4,7.1L545.3,465.2z M257.1,464.6l-0.3-0.6l16.4-7.1l0.3,0.5
			L257.1,464.6z M546.6,462l-16.4-7l0.3-0.6l16.4,6.8L546.6,462z M255.7,461.5l-0.3-0.6l16.4-6.8l0.3,0.6L255.7,461.5z M548,459
			l-16.7-6.7l0.2-0.6l16.5,6.5V459z M254.6,458.5l-0.3-0.6l16.5-6.5l0.3,0.6L254.6,458.5z M549.3,455.8l-16.7-6.2l0.2-0.6l16.7,6
			L549.3,455.8z M253.3,455.3l-0.2-0.6l16.7-6l0.2,0.6L253.3,455.3z M550.3,452.5l-16.7-5.9l0.2-0.6l16.8,5.7L550.3,452.5z
			 M252.2,452.2l-0.3-0.6l16.8-5.7l0.2,0.6L252.2,452.2z M551.4,449.3l-16.8-5.4l0.2-0.6l16.8,5.4L551.4,449.3z M251.3,448.8
			l-0.2-0.6l16.8-5.4l0.2,0.6L251.3,448.8z M552.5,446.1l-17-5.2l0.2-0.6l17,5.1L552.5,446.1z M250.2,445.7L250,445l17-5.1l0.2,0.6
			L250.2,445.7z M553.3,442.8l-17.2-4.8l0.2-0.6l17.2,4.8L553.3,442.8z M249.2,442.5l-0.2-0.6l17.2-4.8l0.2,0.6L249.2,442.5z
			 M554.2,439.6l-17.2-4.4l0.2-0.6l17.2,4.3L554.2,439.6z M248.4,439.1l-0.2-0.6l17.3-4.3l0.2,0.6L248.4,439.1z M555,436.4l-17.3-4
			l0.2-0.6l17.3,4L555,436.4z M247.6,436l-0.2-0.6l17.3-4l0.2,0.6L247.6,436z M555.8,433.1l-17.5-3.7l0.2-0.6l17.5,3.5L555.8,433.1z
			 M246.8,432.6l-0.2-0.6l17.5-3.5l0.2,0.6L246.8,432.6z M556.5,429.8l-17.5-3.3l0.2-0.6l17.5,3.2L556.5,429.8z M246.2,429.3
			l-0.2-0.6l17.5-3.2l0.2,0.6L246.2,429.3z M556.9,426.4l-17.5-2.9l0.2-0.6l17.6,2.7L556.9,426.4z M245.6,426l-0.2-0.6l17.6-2.7
			l0.2,0.6L245.6,426z M557.4,423.1l-17.6-2.4l0.2-0.6l17.6,2.4L557.4,423.1z M245.1,422.6l-0.2-0.6l17.6-2.4l0.2,0.6L245.1,422.6z
			 M557.9,419.8l-17.6-2.1v-0.6l17.6,2.1V419.8z M244.8,419.4v-0.6l17.6-2.1v0.6L244.8,419.4z M558.4,416.4l-17.6-1.7V414l17.6,1.7
			V416.4z M244.4,415.9v-0.6l17.8-1.7v0.6L244.4,415.9z M558.7,412.9l-17.8-1.3V411l17.8,1.4V412.9z M244.1,412.5v-0.6l17.8-1.3v0.6
			L244.1,412.5z M558.8,409.6l-17.8-1V408l17.8,1V409.6z M244,409.1v-0.6l17.8-1v0.6L244,409.1z M559,406.3l-17.8-0.6V405l17.8,0.6
			V406.3z M243.8,405.8v-0.6l17.8-0.5v0.6L243.8,405.8z M559.2,402.9l-17.8-0.3V402l17.8,0.2V402.9z M243.6,402.4v-0.6l17.8-0.2v0.6
			L243.6,402.4z M541.4,399.7v-0.6l17.8-0.2v0.8L541.4,399.7L541.4,399.7z M261.4,399.3l-17.8-0.2v-0.8l17.8,0.3V399.3z
			 M541.2,396.7v-0.6l17.8-0.6v0.8L541.2,396.7z M261.6,396.2l-17.8-0.5V395l17.8,0.6V396.2z M541.2,393.9v-0.6l17.8-1v0.6
			L541.2,393.9z M261.6,393.4l-17.8-1v-0.6l17.8,1.1V393.4z M540.9,390.7v-0.6l17.8-1.4v0.6L540.9,390.7z M261.9,390.4l-17.8-1.4
			v-0.6l17.8,1.4V390.4z M540.7,387.7V387l17.6-1.7v0.6L540.7,387.7z M262.1,387.4l-17.6-1.7V385l17.6,1.7V387.4z M540.4,384.8v-0.6
			l17.6-2.1l0.2,0.8L540.4,384.8z M262.4,384.3l-17.6-1.9l0.2-0.6l17.6,2.1L262.4,384.3z M539.9,382l-0.2-0.6l17.6-2.4l0.2,0.6
			L539.9,382z M262.9,381.5l-17.6-2.4l0.2-0.6l17.6,2.4L262.9,381.5z M539.6,378.9l-0.2-0.6l17.6-2.9l0.2,0.6L539.6,378.9z
			 M263.2,378.5l-17.6-2.9l0.2-0.6l17.5,2.9L263.2,378.5L263.2,378.5z M539,375.9l-0.2-0.6l17.5-3.2l0.2,0.6L539,375.9z
			 M263.7,375.6l-17.5-3.2l0.2-0.6l17.5,3.2L263.7,375.6z M538.7,372.9l-0.2-0.6l17.5-3.7l0.2,0.6L538.7,372.9z M264.3,372.6
			l-17.5-3.5l0.2-0.6l17.5,3.7L264.3,372.6z M538,370l-0.2-0.6l17.3-4l0.2,0.6L538,370z M264.9,369.6l-17.3-4l0.2-0.6l17.3,4
			L264.9,369.6z M537.2,367.2l-0.2-0.6l17.2-4.3l0.2,0.6L537.2,367.2z M265.6,366.7l-17.3-4.3l0.2-0.6l17.3,4.4L265.6,366.7z
			 M536.4,364.3l-0.2-0.6l17.2-4.8l0.2,0.6L536.4,364.3z M266.4,363.8l-17.2-4.8l0.2-0.6l17.2,4.8L266.4,363.8z M535.6,361.5
			l-0.2-0.6l17-5.1l0.2,0.6L535.6,361.5z M267.2,361l-17-5.1l0.2-0.6l17,5.2L267.2,361z M534.8,358.4l-0.2-0.6l16.8-5.4l0.2,0.6
			L534.8,358.4z M268,358.1l-16.8-5.4l0.2-0.6l16.8,5.4L268,358.1z M533.9,355.7l-0.2-0.6l16.8-5.7l0.2,0.6L533.9,355.7z
			 M269.1,355.3l-16.8-5.7l0.2-0.6l16.7,5.9v0.4H269.1z M532.9,352.9l-0.2-0.6l16.7-6l0.3,0.6L532.9,352.9z M270,352.4l-16.7-6
			l0.3-0.6l16.7,6.2L270,352.4z M531.8,350.2l-0.2-0.6l16.5-6.5l0.3,0.6L531.8,350.2z M271,349.7l-16.5-6.5l0.3-0.6l16.5,6.5
			L271,349.7z M530.7,347.3l-0.3-0.6l16.4-6.8l0.3,0.6L530.7,347.3z M272.2,347l-16.4-6.8l0.3-0.6l16.4,6.8L272.2,347z M529.6,344.5
			l-0.3-0.6l16.4-7.1l0.3,0.6L529.6,344.5z M273.4,344.1L257,337l0.3-0.6l16.4,7.3L273.4,344.1z M528.3,341.9l-0.3-0.6l16.2-7.6
			l0.3,0.6L528.3,341.9z M274.6,341.4l-16.2-7.6l0.3-0.6l16.2,7.6L274.6,341.4z M527.1,339.2l-0.3-0.6l16-7.9l0.3,0.6L527.1,339.2z
			 M275.9,338.7l-16-7.9l0.3-0.6l16,7.9L275.9,338.7z M525.6,336.5l-0.3-0.5l15.9-8.3l0.3,0.6L525.6,336.5z M277.3,336l-15.9-8.3
			l0.3-0.6l15.7,8.4L277.3,336z M524.2,333.8l-0.3-0.6l15.6-8.6l0.3,0.6L524.2,333.8z M278.6,333.3l-15.7-8.6l0.3-0.6l15.6,8.7
			L278.6,333.3z M522.9,331.3l-0.3-0.5l15.4-8.9l0.3,0.6L522.9,331.3z M280.2,330.8l-15.4-9.1l0.3-0.6l15.4,9.1L280.2,330.8z
			 M521.3,328.7l-0.3-0.5l15.3-9.2l0.3,0.6L521.3,328.7z M281.6,328.3l-15.3-9.2l0.3-0.6l15.3,9.2L281.6,328.3z M519.9,326.2
			l-0.3-0.5l15.1-9.5l0.3,0.6L519.9,326.2z M283.2,325.6l-15.1-9.5l0.3-0.6l14.9,9.5L283.2,325.6z M518.2,323.6l-0.3-0.5l14.8-9.8
			l0.3,0.6L518.2,323.6z M284.8,323.2l-14.8-9.8l0.3-0.6l14.8,9.8L284.8,323.2z M516.6,321.3l-0.3-0.5l14.6-10.2l0.5,0.6
			L516.6,321.3z M286.5,320.8l-14.6-10.2l0.3-0.6l14.6,10.2L286.5,320.8z M514.8,318.7l-0.3-0.5l14.3-10.5l0.5,0.6L514.8,318.7z
			 M288.3,318.2L274,307.8l0.5-0.5l14.3,10.5L288.3,318.2z M513.1,316.3l-0.3-0.5l14.1-10.8l0.5,0.6L513.1,316.3z M290,315.9
			l-14.1-10.8l0.5-0.6l14.1,10.8L290,315.9z M511.2,314.1l-0.3-0.5l13.8-11.1l0.5,0.5L511.2,314.1z M291.9,313.5l-13.8-11.1l0.5-0.5
			l13.8,11.1L291.9,313.5z M509.4,311.6l-0.5-0.5l13.7-11.4l0.5,0.5L509.4,311.6z M293.8,311.1l-13.7-11.4l0.5-0.5l13.7,11.4
			L293.8,311.1z M507.4,309.3l-0.3-0.5l13.3-11.8l0.5,0.5L507.4,309.3z M295.8,308.9l-13.3-11.8l0.5-0.5l13.3,11.8L295.8,308.9z
			 M505.5,307.1l-0.5-0.5l13.2-12.1l0.5,0.5L505.5,307.1z M297.8,306.6l-13.2-12.1l0.5-0.5l13,12.1L297.8,306.6z M503.4,304.9
			l-0.5-0.5l12.9-12.2l0.5,0.5L503.4,304.9z M299.7,304.4l-12.9-12.2l0.5-0.5l12.7,12.4L299.7,304.4z M501.3,302.8l-0.5-0.5
			l12.7-12.6l0.5,0.5L501.3,302.8z M301.9,302.4l-12.7-12.6l0.5-0.5l12.7,12.7L301.9,302.4z M499.1,300.6l-0.5-0.5l12.6-12.7
			l0.5,0.5L499.1,300.6z M304,300.1l-12.4-12.7l0.5-0.5l12.4,12.7L304,300.1z M497,298.5l-0.5-0.5l12.2-13l0.5,0.5L497,298.5z
			 M306.2,298.1L294,285l0.5-0.5l12.1,13L306.2,298.1z M495,296.5l-0.5-0.5l11.9-13.2l0.5,0.5L495,296.5z M308.5,296.2l-12-13.2
			l0.5-0.5l11.8,13.3L308.5,296.2z M492.6,294.6l-0.5-0.5l11.6-13.5l0.5,0.5L492.6,294.6z M310.5,294.1l-11.6-13.5l0.5-0.5
			l11.6,13.5L310.5,294.1z M490.4,292.7l-0.5-0.5l11.3-13.8l0.5,0.5L490.4,292.7z M312.9,292.3l-11.3-13.8l0.5-0.5l11.3,13.8
			L312.9,292.3z M487.8,290.8l-0.5-0.3l11-14l0.5,0.5L487.8,290.8z M315.3,290.4l-11-14l0.5-0.5l11,14L315.3,290.4z M485.6,288.9
			l-0.5-0.3l10.6-14.3l0.6,0.5L485.6,288.9z M317.5,288.7l-10.6-14.3l0.6-0.5l10.5,14.3L317.5,288.7z M483.2,287.3l-0.5-0.3
			l10.3-14.5l0.6,0.5L483.2,287.3z M320.1,286.8l-10.3-14.5l0.6-0.5l10.3,14.5L320.1,286.8z M480.7,285.4l-0.5-0.3l10-14.8l0.6,0.5
			L480.7,285.4z M322.4,285.2l-10-14.8l0.6-0.3l10,14.8L322.4,285.2z M478.3,283.8l-0.5-0.3l9.7-14.9l0.6,0.3L478.3,283.8z
			 M325,283.5l-9.7-14.9l0.6-0.3l9.7,14.9L325,283.5z M475.7,282l-0.5-0.3l9.4-15.1l0.6,0.3L475.7,282z M327.5,281.7l-9.4-15.1
			l0.6-0.3l9.2,15.3L327.5,281.7z M473.2,280.6l-0.5-0.3l9.1-15.4l0.6,0.3L473.2,280.6z M330.1,280.3l-9.1-15.4l0.6-0.3l9.1,15.4
			L330.1,280.3z M470.5,279l-0.5-0.3l8.7-15.6l0.6,0.3L470.5,279z M332.6,278.7l-8.7-15.6l0.6-0.3l8.7,15.6L332.6,278.7z M468,277.7
			l-0.6-0.3l8.4-15.7l0.6,0.3L468,277.7z M335.3,277.4l-8.4-15.7l0.6-0.3l8.4,15.7L335.3,277.4z M465.4,276.1l-0.5-0.3l8.1-15.9
			l0.6,0.3L465.4,276.1z M337.9,276l-8.1-15.9l0.6-0.3l8.1,16L337.9,276z M462.6,274.9l-0.6-0.3l7.8-16l0.6,0.3L462.6,274.9z
			 M340.6,274.6l-7.8-16l0.6-0.3l7.8,16.2L340.6,274.6z M459.9,273.6l-0.5-0.3l7.3-16.2l0.6,0.3L459.9,273.6z M343.1,273.4
			l-7.5-16.2l0.6-0.3l7.3,16.4L343.1,273.4z M457.2,272.3l-0.6-0.3l7-16.4l0.6,0.3L457.2,272.3z M346,272.2l-7-16.4l0.6-0.3l7,16.4
			L346,272.2z M454.5,271.1l-0.6-0.2l6.7-16.4l0.6,0.3L454.5,271.1z M348.7,270.9l-6.7-16.4l0.6-0.3l6.7,16.5L348.7,270.9z
			 M451.6,270.1l-0.6-0.2l6.4-16.5l0.6,0.3L451.6,270.1z M351.5,269.9l-6.4-16.5l0.6-0.3l6.2,16.7L351.5,269.9z M448.9,269l-0.6-0.2
			l5.9-16.7l0.6,0.2L448.9,269z M354.2,268.8l-5.9-16.7l0.6-0.3l5.9,16.7L354.2,268.8z M446,268l-0.6-0.2L451,251l0.6,0.2L446,268z
			 M357.2,267.9l-5.6-16.8l0.6-0.2l5.6,16.8L357.2,267.9z M443.2,267.1l-0.6-0.2l5.2-17l0.6,0.2L443.2,267.1z M359.9,267.1l-5.4-17
			l0.6-0.2l5.2,17L359.9,267.1z M440.3,266.3l-0.6-0.2l4.9-17.2l0.6,0.2L440.3,266.3z M362.8,266.1l-4.9-17l0.6-0.2l4.9,17.2H362.8z
			 M437.3,265.5l-0.6-0.2l4.6-17.2l0.6,0.2L437.3,265.5z M365.7,265.3l-4.6-17.2l0.6-0.2l4.4,17.2L365.7,265.3z M434.4,264.7
			l-0.6-0.2l4.1-17.3l0.6,0.2L434.4,264.7z M368.5,264.5l-4.1-17.3l0.6-0.2l4.1,17.3L368.5,264.5z M431.6,264.1l-0.6-0.2l3.8-17.3
			l0.6,0.2L431.6,264.1z M371.5,263.9l-3.8-17.3l0.6-0.2l3.7,17.3L371.5,263.9z M428.7,263.4l-0.6-0.2l3.3-17.5l0.6,0.2L428.7,263.4
			z M374.4,263.4l-3.3-17.5l0.6-0.2l3.3,17.5L374.4,263.4z M425.9,263l-0.6-0.2l3-17.5l0.6,0.2L425.9,263z M377.4,262.8l-3-17.5
			l0.6-0.2l3,17.5L377.4,262.8z M422.7,262.5l-0.6-0.2l2.5-17.6l0.8,0.2L422.7,262.5z M380.3,262.3l-2.7-17.6l0.6-0.2l2.5,17.6
			L380.3,262.3z M419.8,262h-0.6l2.2-17.6l0.8,0.2L419.8,262z M383.3,262l-2.2-17.6l0.8-0.2l2.1,17.6L383.3,262z M416.8,261.7h-0.6
			l1.7-17.6h0.6L416.8,261.7z M386.3,261.5l-1.7-17.6h0.6l1.7,17.6H386.3z M414,261.4h-0.6l1.6-17.8h0.6L414,261.4z M389.3,261.2
			l-1.6-17.8h0.6l1.6,17.8H389.3z M410.9,261.1h-0.6l1.3-17.8h0.6L410.9,261.1z M392.2,261.1l-1.3-17.8h0.6l1.1,17.8H392.2z
			 M408.1,260.9h-0.6l0.8-17.8h0.8L408.1,260.9z M395.2,260.9l-0.8-17.8h0.8l0.6,17.8H395.2z M404.9,260.7h-0.6l0.3-17.8h0.6
			L404.9,260.7z M398.2,260.7l-0.5-17.8h0.8l0.3,17.8H398.2z M401.9,260.7h-0.6h-0.2v-17.8h1L401.9,260.7z"/>
		<circle class="st1" cx="398.9" cy="398.9" r="337.3"/>
		<circle class="st1" cx="398.9" cy="398.9" r="345.1"/>
		<circle class="st1" cx="398.9" cy="398.9" r="316.8"/>
		<circle class="st1" cx="398.9" cy="398.9" r="325.2"/>
		<circle class="st1" cx="398.9" cy="398.9" r="295.8"/>
		<circle class="st1" cx="398.9" cy="398.9" r="304.4"/>
		<circle class="st1" cx="398.9" cy="398.9" r="271.8"/>
		<circle class="st1" cx="398.9" cy="398.9" r="280.6"/>
		<circle class="st1" cx="398.9" cy="398.9" r="251.6"/>
		<circle class="st1" cx="398.9" cy="398.9" r="259.4"/>
		<circle class="st1" cx="398.9" cy="398.9" r="229.7"/>
		<circle class="st1" cx="398.9" cy="398.9" r="238.5"/>
		<circle class="st1" cx="398.9" cy="398.9" r="215.1"/>
		<circle class="st1" cx="398.9" cy="398.9" r="206.6"/>
	</g>
	<g id="grungeleb">
		<path class="st0" d="M400.9,267.1c-73.4,0-132.8,59.6-132.8,132.8s59.6,132.8,132.8,132.8s132.8-59.4,132.8-132.8
			C533.9,326.5,474.3,267.1,400.9,267.1z M402.5,409.3c-0.5,0.2-1,0.2-1.4,0.2c-5.4,0-9.8-4.4-9.8-9.8c0-0.3,0-0.8,0.2-1.1
			c0.5-4.9,4.8-8.7,9.7-8.7c5.4,0,9.8,4.4,9.8,9.8C410.8,404.5,407.3,408.6,402.5,409.3z"/>
	</g>
</g>
</svg>
