<?xml version="1.0" encoding="utf-8"?>
<!-- Generator: Adobe Illustrator 24.0.2, SVG Export Plug-In . SVG Version: 6.00 Build 0)  -->
<svg version="1.1" baseProfile="tiny" id="Layer_1" xmlns="http://www.w3.org/2000/svg" xmlns:xlink="http://www.w3.org/1999/xlink"
	 x="0px" y="0px" viewBox="0 0 89.9 28" xml:space="preserve">
<g>
	<path fill="#FF0000" d="M23,9.7c0,0.9-0.1,1.8-0.2,2.6c-0.2,0.8-0.4,1.5-0.8,2.1c-0.3,0.6-0.8,1.2-1.4,1.8c-0.6,0.5-1.2,1.1-2,1.6
		l4.3,7.7L14.8,27L12,19.3l-2.2,0.1l-0.3,7.5H1.7c0.1-2.7,0.1-5.5,0.2-8.2c0.1-2.7,0.1-5.5,0.2-8.2c0-1.4,0-2.8,0.1-4.1
		c0-1.4,0.1-2.7,0.1-4.1C3.1,1.9,4,1.6,4.8,1.4C5.6,1.2,6.4,1.1,7.2,1c0.8-0.1,1.7-0.2,2.5-0.2c0.8,0,1.7-0.1,2.6-0.1
		c1.4,0,2.7,0.2,4,0.6c1.3,0.4,2.4,0.9,3.4,1.7c1,0.8,1.8,1.7,2.4,2.8C22.7,6.9,23,8.2,23,9.7z M14.9,10.3c0-0.5-0.1-1-0.2-1.4
		c-0.1-0.4-0.3-0.8-0.6-1.1c-0.3-0.3-0.6-0.5-1-0.7c-0.4-0.2-0.9-0.3-1.4-0.3c-0.2,0-0.5,0-0.7,0c-0.2,0-0.5,0.1-0.7,0.1L10,13.7
		h0.4c0.5,0,1-0.1,1.6-0.2c0.5-0.1,1-0.3,1.4-0.6c0.4-0.3,0.8-0.6,1-1.1C14.8,11.4,14.9,10.9,14.9,10.3z"/>
	<path fill="#FF0000" d="M46.6,13.3c0,1.1-0.1,2.2-0.4,3.2s-0.6,2-1.1,2.9c-0.5,0.9-1.1,1.7-1.7,2.4c-0.7,0.7-1.4,1.4-2.3,1.9
		c-0.8,0.5-1.8,0.9-2.8,1.2c-1,0.3-2.1,0.4-3.2,0.4c-1.1,0-2.1-0.1-3.1-0.4c-1-0.3-1.9-0.7-2.8-1.2c-0.9-0.5-1.6-1.1-2.3-1.8
		c-0.7-0.7-1.3-1.5-1.8-2.3c-0.5-0.9-0.9-1.8-1.1-2.8c-0.3-1-0.4-2-0.4-3.1c0-1,0.1-2.1,0.4-3.1c0.3-1,0.6-2,1.1-2.8
		c0.5-0.9,1.1-1.7,1.7-2.5c0.7-0.7,1.4-1.4,2.3-1.9c0.8-0.5,1.7-1,2.7-1.3c1-0.3,2-0.5,3.1-0.5c1.7,0,3.3,0.3,4.8,0.8
		c1.4,0.5,2.7,1.3,3.7,2.3c1,1,1.8,2.2,2.4,3.6C46.3,10,46.6,11.6,46.6,13.3z M38.6,13.8c0-0.5-0.1-1-0.2-1.5
		c-0.2-0.5-0.4-0.9-0.7-1.3c-0.3-0.4-0.6-0.7-1.1-0.9c-0.4-0.2-0.9-0.4-1.5-0.4c-0.6,0-1.1,0.1-1.5,0.3c-0.4,0.2-0.8,0.5-1.1,0.8
		c-0.3,0.4-0.6,0.8-0.7,1.2c-0.2,0.5-0.3,1-0.3,1.5c0,0.5,0.1,1,0.2,1.5s0.4,1,0.7,1.4s0.6,0.7,1.1,1c0.4,0.3,0.9,0.4,1.5,0.4
		c0.6,0,1.1-0.1,1.5-0.3c0.5-0.2,0.8-0.5,1.1-0.9c0.3-0.4,0.6-0.8,0.7-1.3C38.5,14.8,38.6,14.3,38.6,13.8z"/>
	<path fill="#FF0000" d="M65.1,2.5l-0.7,7.6c-0.3-0.1-0.7-0.2-1-0.2c-0.3,0-0.7-0.1-1-0.1c-0.9,0-1.7,0.1-2.4,0.3
		c-0.8,0.2-1.5,0.5-2.1,1c-0.6,0.4-1.1,1-1.4,1.7c-0.4,0.7-0.5,1.5-0.5,2.4c0,0.7,0.1,1.3,0.3,1.8c0.2,0.5,0.5,0.9,0.8,1.2
		c0.4,0.3,0.8,0.6,1.3,0.8c0.5,0.2,1.1,0.3,1.7,0.3c0.4,0,0.9,0,1.4-0.1c0.5-0.1,0.9-0.2,1.4-0.4s0.9-0.3,1.4-0.5s0.8-0.4,1.2-0.7
		l-0.3,8.5c-0.5,0.2-1,0.5-1.5,0.6s-1.1,0.3-1.7,0.5c-0.6,0.1-1.1,0.2-1.7,0.3c-0.6,0.1-1.1,0.1-1.6,0.1c-1.7,0-3.3-0.3-4.7-1
		c-1.4-0.6-2.6-1.5-3.6-2.6c-1-1.1-1.8-2.4-2.3-3.8c-0.6-1.5-0.8-3-0.8-4.7c0-2,0.3-3.8,0.8-5.5c0.6-1.7,1.4-3.2,2.5-4.5
		c1.1-1.3,2.4-2.2,4-3c1.6-0.7,3.5-1.1,5.5-1.1c0.8,0,1.7,0.1,2.5,0.2C63.5,1.9,64.3,2.1,65.1,2.5z"/>
	<path fill="#FF0000" d="M89,3.8l-8,9.5l7.3,12.4L80,27.2l-5.5-7.4l-0.3,7.1l-7.5,0.3l0.6-25.9l8.4,0.5L75,9.2l5.2-7.6L89,3.8z"/>
</g>
</svg>
